<?xml version="1.0" encoding="utf-8"?>
<!-- Generator: Adobe Illustrator 26.1.0, SVG Export Plug-In . SVG Version: 6.00 Build 0)  -->
<svg version="1.1" id="Layer_1" xmlns="http://www.w3.org/2000/svg" xmlns:xlink="http://www.w3.org/1999/xlink" x="0px" y="0px"
	 viewBox="0 0 200 200" enable-background="new 0 0 200 200" xml:space="preserve">
<linearGradient id="SVGID_1_" gradientUnits="userSpaceOnUse" x1="36.0555" y1="-10.7552" x2="163.9445" y2="210.7552">
	<stop  offset="0" style="stop-color:#333333"/>
	<stop  offset="3.631285e-02" style="stop-color:#57585A"/>
	<stop  offset="1" style="stop-color:#0D0D0D"/>
</linearGradient>
<path fill="url(#SVGID_1_)" d="M176.2,200H23.8C10.7,200,0,189.3,0,176.2V23.8C0,10.7,10.7,0,23.8,0h152.4
	C189.3,0,200,10.7,200,23.8v152.4C200,189.3,189.3,200,176.2,200z"/>
<g>
	<path fill="#52DEFF" d="M68.5,39.1v79.1c0,11.3-2.7,19.7-8.1,25.2c-5.4,5.5-14.3,8.3-26.6,8.3c-5.4,0-11.3-0.6-17.5-1.7v-21.5
		c5.1,0.9,9.6,1.3,13.2,1.3c3.2,0,5.8-0.6,7.7-1.7c1.9-1.2,3.2-2.6,4.1-4.3c0.9-1.7,1.3-4.6,1.3-8.8V39.1H68.5z"/>
	<path fill="#52DEFF" d="M115.1,39.1v52.1l34.8-52.1h24.9l-26.6,39.6l33.3,71.3h-28.6l-22.1-48.2l-15.6,22.7V150H89.6V39.1H115.1z"
		/>
</g>
</svg>
