<?xml version="1.0" encoding="UTF-8" standalone="no"?><!-- Generator: Gravit.io --><svg xmlns="http://www.w3.org/2000/svg" xmlns:xlink="http://www.w3.org/1999/xlink" style="isolation:isolate" viewBox="0 0 278 228" width="278pt" height="228pt"><defs><clipPath id="_clipPath_QBBIjlU7QOK3wYeJNlYU6zfSFENYdBSt"><rect width="278" height="228"/></clipPath></defs><g clip-path="url(#_clipPath_QBBIjlU7QOK3wYeJNlYU6zfSFENYdBSt)"><g style="isolation:isolate"><g><path d=" M 204.213 186.487 L 204.213 228.028 L 232.41 228.028 L 232.41 186.487 L 273.951 186.487 L 273.951 158.29 L 232.41 158.29 L 232.41 116.749 L 204.213 116.749 L 204.213 158.29 L 162.672 158.29 L 162.672 186.487 L 204.213 186.487 Z " fill-rule="evenodd" fill="rgb(58,111,67)"/><path d=" M 29.374 52.253 L 0 81.626 L 19.938 101.565 L 49.312 72.191 L 78.686 101.565 L 98.624 81.626 L 69.251 52.253 L 98.624 22.879 L 78.686 2.941 L 49.312 32.314 L 19.938 2.941 L 0 22.879 L 29.374 52.253 Z " fill-rule="evenodd" fill="rgb(58,111,67)"/><rect x="41.541" y="116.749" width="28.197" height="111.278" transform="matrix(0,-1,1,0,-116.749,228.028)" fill="rgb(58,111,67)"/><g><rect x="214.589" y="-6.327" width="28.197" height="111.278" transform="matrix(-0.707,-0.707,0.707,-0.707,355.526,245.888)" fill="rgb(58,111,67)"/><path d=" M 268.565 66.402 C 274.853 72.69 274.853 82.901 268.565 89.189 C 262.277 95.477 252.066 95.477 245.778 89.189 C 239.49 82.901 239.49 72.69 245.778 66.402 C 252.066 60.114 262.277 60.114 268.565 66.402 Z " fill="rgb(58,111,67)"/><path d=" M 211.598 9.435 C 217.886 15.723 217.886 25.934 211.598 32.222 C 205.31 38.51 195.099 38.51 188.811 32.222 C 182.523 25.934 182.523 15.723 188.811 9.435 C 195.099 3.147 205.31 3.147 211.598 9.435 Z " fill="rgb(58,111,67)"/></g></g><rect x="43.147" y="30.957" width="178.671" height="178.671" transform="matrix(1,0,0,1,0,0)" fill="rgb(98,174,112)"/><g><path d=" M 95.074 71.198 L 95.074 50.17 L 80.799 50.17 L 80.799 71.198 L 59.771 71.198 L 59.771 85.472 L 80.799 85.472 L 80.799 106.501 L 95.074 106.501 L 95.074 85.472 L 116.102 85.472 L 116.102 71.198 L 95.074 71.198 Z " fill-rule="evenodd" fill="rgb(255,255,255)"/><path d=" M 189.027 167.183 L 203.897 152.314 L 193.804 142.22 L 178.934 157.09 L 164.064 142.22 L 153.971 152.314 L 168.841 167.183 L 153.971 182.053 L 164.064 192.146 L 178.934 177.276 L 193.804 192.146 L 203.897 182.053 L 189.027 167.183 Z " fill-rule="evenodd" fill="rgb(255,255,255)"/><rect x="171.797" y="50.17" width="14.274" height="56.332" transform="matrix(0,1,-1,0,257.269,-100.599)" fill="rgb(255,255,255)"/><g><rect x="80.222" y="138.024" width="14.172" height="55.929" transform="matrix(0.707,0.707,-0.707,0.707,142.944,-13.119)" fill="rgb(255,255,255)"/><path d=" M 67.266 157.399 C 64.105 154.239 64.105 149.107 67.266 145.947 C 70.426 142.786 75.558 142.786 78.719 145.947 C 81.879 149.107 81.879 154.239 78.719 157.399 C 75.558 160.56 70.426 160.56 67.266 157.399 Z " fill="rgb(255,255,255)"/><path d=" M 95.898 186.031 C 92.738 182.871 92.738 177.739 95.898 174.579 C 99.059 171.418 104.19 171.418 107.351 174.579 C 110.511 177.739 110.511 182.871 107.351 186.031 C 104.19 189.192 99.059 189.192 95.898 186.031 Z " fill="rgb(255,255,255)"/></g></g></g></g></svg>