<?xml version="1.0" encoding="UTF-8"?><svg id="a" xmlns="http://www.w3.org/2000/svg" viewBox="0 0 815.77 243.06"><g><path d="M15.04,238.06c-3.09,0-5.71-1.18-7.56-3.42-1.65-2-2.48-4.74-2.48-8.16,0-2.7,.31-5.8,.92-9.21,.59-3.3,1.53-6.93,2.79-10.82,1.29-4.88,2.43-8.95,3.38-12.08,1.08-3.54,1.3-5.1,1.34-5.72l.05-.87,.34-.8c.1-.24,.42-1.03,1.11-3.1,.56-1.67,1.2-3.7,1.93-6.05l.08-.23c.21-.59,.42-1.2,.63-1.84-2.22-.41-4.05-1.62-5.21-3.48-.97-1.55-1.46-3.43-1.46-5.59,0-1.03,.14-2.14,.41-3.31,.14-.58,.31-1.22,.52-1.91-.15-.72-.25-1.37-.29-1.97-.06-.8-.08-1.47-.08-2.05,0-3.61,.47-6.81,1.39-9.52,1-2.92,2.53-5.43,4.56-7.46,.83-.83,2.02-1.57,4.23-2.64,1.61-.78,3.66-1.68,6.25-2.74,1.13-.55,2.01-1.16,2.62-1.82,.21-.23,.41-.52,.44-1.17l.02-.39,.08-.38c.37-1.74,1.06-3.59,2.1-5.67,.87-1.73,1.9-3.65,3.07-5.7,.19-.42,.85-2.13,2.94-8.7,1.84-5.8,4.47-14.47,7.8-25.75,.97-3.57,1.95-6.71,2.93-9.34,.93-2.52,1.73-4.66,2.38-6.43,3.25-8.63,5.82-14.01,8.1-16.95,.98-1.27,1.82-2.4,2.52-3.4l-4.85-7.65,9.02-10.4,8.28-1.65c.16-.21,.42-.6,.74-1.27,1.43-2.97,3.74-6.03,7.07-9.35l.92-.92,1.14-.32c.14-.07,.67-.33,1.83-1.11,1.34-.91,3.1-2.22,5.24-3.91,2.18-1.76,4.09-3.08,5.79-3.99,2.19-1.17,3.96-1.71,5.58-1.71,3.79,0,6.76,.96,8.83,2.86,2.16,1.98,3.3,4.66,3.3,7.74s-1.22,6.58-3.83,11.36c-1.81,3.31-2.37,5.13-2.53,5.98l16.01,8.68c2.99,1.4,4.29,4.73,5.1,7.5,.83,2.86,1.48,6.57,1.98,11.33,.55,3.65,.99,6.77,1.32,9.29,.36,2.72,.53,4.88,.53,6.6v.4l-.06,.4c-.61,3.74-1.21,7.51-1.82,11.33,.89,4.95,1.86,10.2,2.91,15.61l.14,.72-.07,.73c-.48,4.74-.99,9.52-1.53,14.24,1.2,.44,2.24,1.08,3.12,1.9,1.26,1.2,2.76,3.32,2.76,6.72,0,2.52-.44,4.59-1.33,6.31-.94,1.8-2.29,3.24-4.02,4.28-.58,.36-1.05,.67-1.42,.92l1.39,6.65-2.58,20.43c-.02,1.81-.16,3.99-.45,6.65-.29,2.69-.72,5.84-1.29,9.37l-.08,.48-.17,.46c-.88,2.39-1.55,4.38-1.97,5.9-.22,.79-.35,1.33-.42,1.67,.38,1.4,.74,2.87,1.06,4.37l.22,1.06-.23,1.06c-.57,2.55-1.15,5.1-1.76,7.65-.6,2.51-1.18,4.97-1.74,7.38l-.04,.19-.06,.19c-1.3,4.16-3.08,7.23-5.44,9.4-2.59,2.38-5.79,3.63-9.25,3.63-3.01,0-5.59-1.51-7.08-4.15-1.05-1.86-1.56-4.24-1.56-7.3,0-1.26,.19-2.88,.57-4.97,.37-2,.41-2.87,.41-3.16,0-.17-.02-.69-.21-1.84-.23-1.37-.35-2.64-.35-3.76,0-2.8,.26-7.04,.79-12.98,.46-5.13,.71-9.1,.75-11.81-.41-1.39-.81-2.81-1.21-4.27l-.29-1.04,.17-1.07c.25-1.59,.42-3.23,.51-4.87,.08-1.53,.04-2.98-.11-4.28l-.19-1.6,2.07-3.73-.83-5.92c-.22,.12-1.16,.67-1.16,.67l-.5,.17c-1.36,.45-3.31,.9-5.97,1.37-2.43,.43-5.41,.69-9.09,.81-1.41,.69-2.75,1.31-4,1.86l-.45,.2-.48,.11c-1.93,.42-4.46,1.19-7.51,2.28-3.16,1.13-6.87,2.53-11.04,4.15-2.64,1.26-5.12,2.28-7.35,3.03-2.34,.78-4.36,1.2-6.15,1.29-.12,.24-.28,.6-.45,1.13-.37,1.8-1.11,4.05-2.27,6.86-1.08,2.63-2.52,5.92-4.26,9.79-.34,.95-.81,2.41-1.4,4.34-.63,2.05-1.36,4.68-2.19,7.81l-.11,.42-.18,.39c-.53,1.14-1.16,2.61-1.88,4.36-.64,1.56-1.35,3.36-2.17,5.46-.05,1.13-.17,2.4-.38,3.85-.25,1.75-.62,3.78-1.11,6.03l-.07,.32-.11,.31c-.49,1.36-1.14,3.09-1.95,5.13-.84,2.13-1.92,4.51-3.19,7.05-1.24,2.48-3.08,4.34-5.46,5.53-2.12,1.06-4.64,1.58-7.7,1.58ZM75.23,101.11c-.55,3.79-1.85,8.19-3.97,13.41-1.95,4.8-4.6,10.36-7.88,16.58,2.02-.17,3.49-.26,4.51-.26,1.19,0,3.61-.24,8.33-1.4,4.64-1.14,8.14-1.69,10.72-1.69h.53l.52,.11c.9,.2,1.82,.37,2.73,.51,1.92-.4,3.83-.86,5.68-1.37,1.92-.52,3.89-1,5.87-1.42-.11-1.91-.17-3.29-.17-4.19,0-1.95,.13-4.13,.38-6.48,.21-1.97,.51-4.01,.9-6.08l-1.62-6.07,.58-5.95c-.33-1.89-.61-3.7-.83-5.38-.2-1.53-.27-2.9-.22-4.14-.07-.13-.15-.28-.24-.43-.44-.8-.93-1.64-1.46-2.52-.89-1.51-1.8-2.95-2.73-4.32-.98-1.44-1.94-2.92-2.86-4.39-.85-1.12-1.69-1.92-2.52-2.39-.64-.36-1.25-.56-1.87-.61-.27,.19-.92,.76-1.87,2.21-1.67,2.54-3.29,6.64-4.82,12.17l-.06,.21-.08,.21c-.25,.67-.77,1.88-2.59,5.24-1.21,2.23-2.83,5-4.97,8.44Z" fill="#ff0000"/><path d="M103.61,12.09c2.51,0,4.33,.51,5.45,1.54,1.12,1.03,1.68,2.38,1.68,4.06,0,2.05-1.07,5.04-3.21,8.96-2.14,3.92-3.21,6.91-3.21,8.96,0,.93,.21,1.7,.63,2.31,.42,.61,.91,1,1.47,1.19l16.77,9.1c.93,.37,1.77,1.84,2.51,4.41,.74,2.57,1.35,6.09,1.82,10.57,.56,3.73,1,6.83,1.33,9.31,.33,2.47,.49,4.45,.49,5.95-.65,4.01-1.3,8.07-1.96,12.18,.93,5.23,1.95,10.73,3.07,16.51-.56,5.5-1.16,11.1-1.82,16.79,0,.56,.12,1.05,.35,1.47,.23,.42,.58,.68,1.05,.77,1.58,.09,2.77,.51,3.56,1.26,.79,.75,1.19,1.77,1.19,3.08,0,1.68-.26,3.02-.77,4-.51,.98-1.23,1.75-2.16,2.31-1.21,.75-2.17,1.4-2.86,1.96-.7,.56-1.19,1.03-1.47,1.4l1.82,8.69-2.51,19.9c0,1.68-.14,3.83-.42,6.45-.28,2.62-.7,5.65-1.25,9.11-.93,2.52-1.63,4.63-2.1,6.31-.47,1.68-.7,2.8-.7,3.36,.46,1.59,.88,3.27,1.26,5.05-.56,2.52-1.14,5.05-1.75,7.57-.61,2.52-1.19,5-1.75,7.43-1.02,3.27-2.37,5.67-4.05,7.22-1.68,1.54-3.63,2.31-5.86,2.31-1.22,0-2.13-.54-2.73-1.61-.61-1.08-.91-2.69-.91-4.84,0-.93,.16-2.29,.49-4.06,.33-1.77,.49-3.13,.49-4.07,0-.65-.09-1.54-.28-2.66-.19-1.12-.28-2.1-.28-2.94,0-2.61,.26-6.79,.77-12.54,.51-5.75,.77-10.06,.77-12.96-.47-1.59-.93-3.22-1.4-4.9,.28-1.77,.47-3.57,.56-5.39,.09-1.82,.05-3.53-.14-5.12l2.1-3.78-1.82-13.03-.98-.42c-.56,0-1.38,.21-2.46,.63-1.07,.42-2.4,1.1-3.99,2.03-1.12,.37-2.87,.77-5.26,1.19-2.38,.42-5.54,.68-9.46,.77-1.68,.84-3.27,1.59-4.77,2.24-2.15,.47-4.86,1.29-8.13,2.45-3.27,1.17-7.05,2.59-11.35,4.27-2.52,1.21-4.84,2.17-6.94,2.87-2.1,.7-3.86,1.05-5.26,1.05-1.12,0-2.05,.42-2.8,1.26-.75,.84-1.35,2.05-1.82,3.64-.28,1.5-.96,3.55-2.03,6.17-1.08,2.61-2.5,5.88-4.28,9.81-.37,1.03-.89,2.61-1.54,4.76-.65,2.15-1.4,4.81-2.24,7.99-.56,1.21-1.21,2.73-1.96,4.55-.75,1.82-1.59,3.94-2.52,6.37,0,1.12-.12,2.5-.35,4.13-.23,1.64-.58,3.53-1.05,5.67-.47,1.31-1.1,2.96-1.89,4.98-.79,2.01-1.8,4.22-3.01,6.65-.75,1.49-1.82,2.59-3.22,3.29-1.4,.7-3.22,1.05-5.46,1.05-1.59,0-2.82-.54-3.71-1.61-.89-1.07-1.33-2.73-1.33-4.97,0-2.43,.28-5.21,.84-8.33,.56-3.13,1.45-6.56,2.66-10.29,1.31-4.95,2.43-8.96,3.36-12.04,.94-3.08,1.45-5.37,1.54-6.86,.28-.65,.7-1.82,1.26-3.5,.56-1.68,1.22-3.73,1.96-6.16,.84-2.33,1.63-4.99,2.38-7.98l-.7-1.12-4.49,.7c-1.03-.09-1.77-.51-2.24-1.26-.47-.75-.7-1.73-.7-2.94,0-.65,.09-1.38,.28-2.17,.19-.79,.47-1.75,.84-2.87-.28-1.03-.44-1.87-.49-2.52-.05-.65-.07-1.21-.07-1.68,0-3.08,.37-5.72,1.12-7.91,.75-2.19,1.87-4.04,3.37-5.53,.37-.37,1.33-.93,2.87-1.68,1.54-.75,3.57-1.63,6.1-2.66,1.77-.84,3.2-1.84,4.27-3.01,1.07-1.17,1.66-2.59,1.75-4.27,.28-1.31,.84-2.8,1.68-4.48,.84-1.68,1.82-3.5,2.94-5.46,.37-.56,1.5-3.78,3.37-9.66,1.87-5.88,4.48-14.52,7.85-25.91,.93-3.45,1.87-6.44,2.8-8.96,.93-2.52,1.73-4.67,2.38-6.44,2.99-7.93,5.44-13.14,7.36-15.61,1.91-2.47,3.34-4.5,4.27-6.09v-.7l-4.34-6.86,5.46-6.3,7.01-1.4c1.4-.19,2.68-1.49,3.85-3.92,1.17-2.43,3.2-5.09,6.1-7.98,.65-.19,1.7-.77,3.15-1.75,1.45-.98,3.29-2.36,5.54-4.13,1.96-1.59,3.64-2.75,5.05-3.5,1.4-.75,2.47-1.12,3.22-1.12m-44.82,124.31c.93,0,2.45-.09,4.55-.28,2.1-.19,3.62-.28,4.55-.28,2.15,0,5.32-.52,9.52-1.55,4.2-1.03,7.37-1.55,9.52-1.55,1.31,.28,2.61,.52,3.92,.7,2.33-.47,4.62-1.01,6.87-1.62,2.24-.61,4.53-1.15,6.87-1.62,.93-.19,1.63-.54,2.1-1.05,.47-.51,.7-1.19,.7-2.03-.19-2.8-.28-4.71-.28-5.74,0-1.77,.12-3.76,.35-5.95,.23-2.19,.58-4.46,1.05-6.79l-1.68-6.3,.56-5.74c-.37-2.05-.68-3.99-.91-5.81-.23-1.82-.26-3.34-.07-4.55-.19-.37-.51-.98-.98-1.82-.47-.84-.98-1.73-1.54-2.66-.93-1.59-1.89-3.1-2.87-4.55-.98-1.45-1.94-2.92-2.87-4.41-1.31-1.77-2.71-3.08-4.2-3.92-1.49-.84-3.03-1.26-4.62-1.26-1.87,0-3.78,1.49-5.74,4.48-1.96,2.99-3.78,7.52-5.46,13.58-.28,.75-1.05,2.29-2.31,4.62-1.26,2.33-3.06,5.37-5.39,9.1-.37,3.55-1.63,7.96-3.78,13.23-2.15,5.28-5.14,11.46-8.96,18.56-.47,.66-.72,1.22-.77,1.69-.05,.47-.07,.98-.07,1.55,0,.66,.16,1.15,.49,1.48,.33,.33,.82,.49,1.47,.49M103.61,2.09c-2.47,0-4.99,.73-7.93,2.29-1.98,1.06-4.14,2.53-6.59,4.52-2.02,1.6-3.66,2.83-4.89,3.66-.44,.29-.73,.48-.92,.6l-1.86,.53-1.84,1.83c-3.37,3.37-5.84,6.55-7.52,9.71l-4.32,.86-3.36,.67-2.24,2.59-5.46,6.3-4.87,5.62,3.98,6.28,1.03,1.63c-.14,.18-.28,.36-.42,.55-2.62,3.39-5.34,9.01-8.81,18.21v.03l-.02,.03c-.65,1.77-1.45,3.91-2.38,6.43-1.02,2.76-2.05,6.02-3.05,9.71-3.32,11.23-5.92,19.84-7.75,25.6-1.76,5.53-2.45,7.43-2.68,8.02-1.15,2.02-2.17,3.93-3.04,5.66-1.23,2.46-2.05,4.7-2.51,6.86l-.02,.07c-.09,.05-.2,.11-.31,.17-2.62,1.07-4.7,1.99-6.38,2.8-2.76,1.34-4.33,2.35-5.58,3.61-2.57,2.57-4.51,5.72-5.76,9.36-1.1,3.25-1.66,6.99-1.66,11.15,0,.7,.03,1.48,.09,2.38,.03,.44,.08,.9,.15,1.37-.09,.35-.18,.69-.26,1.01-.37,1.57-.55,3.07-.55,4.48,0,3.11,.75,5.88,2.22,8.24,.88,1.4,2,2.59,3.31,3.53-.45,1.44-.86,2.72-1.23,3.82-.68,2.05-.94,2.67-.97,2.73l-.68,1.6-.11,1.73s-.1,1.18-1.13,4.57c-.96,3.18-2.1,7.25-3.39,12.13-1.3,4.06-2.28,7.87-2.91,11.34-.67,3.77-1,7.07-1,10.1,0,4.61,1.22,8.42,3.61,11.33,2.81,3.39,6.86,5.25,11.43,5.25,3.8,0,7.14-.71,9.93-2.11,3.32-1.66,5.98-4.34,7.69-7.76,1.34-2.68,2.47-5.19,3.37-7.45,.83-2.1,1.5-3.87,2.01-5.28l.22-.61,.14-.64c.51-2.37,.91-4.52,1.18-6.38,.18-1.27,.31-2.43,.38-3.49,.68-1.76,1.29-3.28,1.84-4.63,.69-1.69,1.3-3.09,1.79-4.17l.36-.79,.22-.84c.81-3.07,1.53-5.64,2.14-7.63,.63-2.06,1.02-3.25,1.26-3.93,1.73-3.83,3.15-7.11,4.24-9.74,.84-2.05,1.48-3.81,1.94-5.38,1.23-.26,2.52-.61,3.88-1.06,2.39-.79,5-1.86,7.76-3.18,4.05-1.58,7.66-2.94,10.73-4.04,2.85-1.02,5.17-1.72,6.89-2.1l.97-.21,.91-.4c1.03-.45,2.11-.94,3.23-1.48,3.44-.14,6.32-.42,8.73-.85,.46-.08,.9-.16,1.33-.24l-.96,1.73,.38,3.2c.12,1.03,.15,2.19,.08,3.45-.08,1.46-.23,2.92-.45,4.34l-.34,2.14,.58,2.09c.34,1.23,.68,2.44,1.02,3.6-.07,2.56-.31,6.15-.71,10.71-.54,6.09-.81,10.48-.81,13.43,0,1.42,.14,2.92,.42,4.6,.1,.6,.13,.92,.14,1.04,0,.15-.06,.79-.32,2.22-.45,2.41-.65,4.28-.65,5.87,0,3.94,.72,7.13,2.2,9.76,2.37,4.19,6.64,6.69,11.44,6.69s9.11-1.71,12.63-4.95c3.02-2.78,5.25-6.57,6.83-11.59l.12-.37,.09-.38c.56-2.44,1.14-4.91,1.72-7.33,.61-2.56,1.21-5.16,1.78-7.73l.47-2.11-.45-2.12c-.24-1.15-.51-2.28-.79-3.38,.02-.09,.05-.19,.08-.29,.39-1.4,1-3.25,1.84-5.51l.34-.92,.15-.96c.58-3.62,1.03-6.86,1.32-9.63,.29-2.68,.44-4.93,.47-6.84l2.44-19.32,.21-1.66-.34-1.64-.53-2.53c1.77-1.39,3.23-3.14,4.28-5.16,1.28-2.45,1.9-5.28,1.9-8.62,0-4.04-1.53-7.71-4.32-10.34-.35-.33-.76-.68-1.23-1.03,.4-3.66,.79-7.33,1.16-10.99l.15-1.46-.28-1.45c-.98-5.09-1.91-10.03-2.75-14.71,.56-3.53,1.12-7.02,1.69-10.48l.13-.8v-.81c0-1.94-.19-4.31-.58-7.25-.33-2.52-.78-5.63-1.32-9.27-.53-5.01-1.23-8.96-2.13-12.09-.65-2.24-2.33-7.99-7.64-10.57l-12.03-6.53c.2-.39,.42-.81,.67-1.28,3.03-5.54,4.44-9.91,4.44-13.76,0-4.46-1.75-8.52-4.92-11.42-3.02-2.77-7.12-4.17-12.21-4.17h0Zm-32.31,24.61h0Zm8.71,76.19c1.93-3.13,3.44-5.71,4.59-7.84,1.95-3.6,2.53-4.95,2.88-5.86l.16-.41,.12-.43c1.14-4.11,2.18-6.81,2.99-8.55,.65,1.01,1.32,2.02,2,3.02,.87,1.28,1.72,2.63,2.53,4.01l.02,.03,.02,.03c.34,.57,.67,1.13,.98,1.67,.02,1.1,.11,2.26,.27,3.49,.2,1.55,.45,3.21,.74,4.93l-.43,4.38-.18,1.8,.47,1.75,1.1,4.12c-.31,1.82-.57,3.61-.75,5.35-.27,2.52-.41,4.88-.41,7,0,.08,0,.17,0,.26-.67,.17-1.34,.35-2.01,.53-1.47,.4-2.97,.77-4.49,1.1-.53-.09-1.05-.2-1.57-.31l-1.04-.23h-1.07c-3.02,0-6.81,.58-11.91,1.84-1.21,.3-2.23,.52-3.1,.7,1.53-3.18,2.85-6.14,3.97-8.87,2.08-5.12,3.44-9.57,4.12-13.52h0Z" fill="#333"/></g><g><path d="M270.59,223.08c-3.13,0-5.4-.53-7.11-1.68-2.22-1.48-3.49-3.81-3.49-6.4v-.3c.17-2.75,.45-5.46,.83-8.07-.08-.24-.17-.51-.26-.79-.18-.58-.48-1.38-.89-2.36l-.32-.77-.05-.83c-.47-7.23-1.07-14.71-1.81-22.24l-.04-.37,.02-.37c.27-5.41,.41-10.93,.41-16.41,0-2.7,.12-6.12,.36-10.17,.24-4.04,.69-8.8,1.36-14.12,.64-5.15,1.1-9.68,1.37-13.46,.27-3.79,.41-6.92,.41-9.31,0-1.37,.13-2.98,.4-4.94,.23-1.71,.49-3.82,.76-6.25,.3-2.3,.59-4.31,.87-6.06,.24-1.45,.36-2.76,.36-3.89,0-.55-.04-1.17-.11-1.84-.09-.78-.18-1.48-.26-2.09l-.18-1.32,.49-1.23c.89-2.22,1.55-4.02,1.99-5.35,.14-.43,.24-.76,.31-1.01-.24-.73-.5-1.45-.78-2.17l-.73-1.9,.8-1.87c.19-.44,.71-1.91,1.51-6.04,.62-3.24,1.29-7.53,2.01-12.77v-3.72c0-1.25,.03-2.71,.08-4.35-.1-.02-.21-.04-.32-.06l-.97,.67-.93,.22c-1.23,.28-2.48,.57-3.75,.85-1.15,.26-2.43,.57-3.79,.93-9.66,2.69-19.28,5.36-28.81,7.97l-.65,.18h-.67c-2.31,0-4.36-1.02-5.78-2.86-1.15-1.5-1.74-3.35-1.74-5.5,0-1.15,.29-2.5,.96-4.52,.03-.1,.06-.19,.1-.29-1.75-.44-3.51-.94-5.25-1.52-1.3,.23-2.54,.44-3.7,.62,.54,.71,1.07,1.55,1.61,2.54,.97,1.77,1.94,4.04,2.98,6.94,.48,1.32,.82,2.64,1.01,3.88,.18,1.17,.27,2.31,.27,3.4,0,2.18-.2,4.79-.6,7.98-.4,3.17-.85,5.72-1.37,7.8-.81,3.51-1.46,6.49-1.9,8.78-.48,2.46-.86,4.25-1.14,5.48-.14,.71-.25,1.6-.32,2.66-.09,1.29-.19,2.76-.28,4.4-.13,1.87-.56,3.96-1.34,6.46-.58,1.86-1.17,4-1.75,6.37-.04,1.34-.2,2.83-.49,4.43-.29,1.65-.68,3.56-1.17,5.7-.34,1.48-.85,3.06-1.55,4.85-.44,1.12-.89,2.45-1.32,3.94,.14,1.18,.25,2.4,.32,3.65l.03,.51-.07,.51c-.37,2.6-.74,5.29-1.11,8.07-.56,4.04-1.12,8.1-1.68,12.2-.56,4.14-1.08,8.12-1.53,11.83l-.1,.86-.39,.77c-.38,.76-.78,1.59-1.21,2.48,.04,.31,.1,.71,.19,1.23,.29,1.67,.42,3.02,.42,4.14,0,1.36-.2,3.09-.64,5.46-.44,2.37-.48,3.28-.48,3.5,0,1.78-.05,4.52-.14,8.39-.08,3.21-.13,5.75-.14,7.57,.41,1.41,.78,2.79,1.11,4.11l.28,1.13-.24,1.14c-.34,1.61-.73,2.92-1.17,4-.65,1.56-1.57,2.85-2.76,3.84l-.28,.23-.31,.19c-1.52,.93-2.96,1.73-4.31,2.4-.71,.7-1.32,1.29-1.85,1.77-1.56,1.44-3.24,2.17-5,2.17-3.13,0-5.4-.53-7.11-1.68-2.22-1.48-3.49-3.81-3.49-6.4v-.3c.17-2.75,.45-5.46,.83-8.07-.08-.24-.17-.51-.26-.79-.18-.58-.48-1.38-.89-2.36l-.32-.77-.05-.83c-.47-7.23-1.07-14.71-1.81-22.24l-.04-.37,.02-.37c.27-5.41,.41-10.93,.41-16.41,0-2.7,.12-6.12,.36-10.17,.24-4.04,.69-8.8,1.36-14.12,.64-5.15,1.1-9.68,1.37-13.46,.27-3.79,.41-6.92,.41-9.31,0-1.37,.13-2.98,.4-4.94,.23-1.71,.49-3.82,.76-6.25,.3-2.3,.59-4.31,.87-6.06,.24-1.45,.36-2.76,.36-3.89,0-.55-.04-1.17-.11-1.84-.09-.78-.18-1.48-.26-2.09l-.18-1.32,.49-1.23c.89-2.22,1.55-4.02,1.99-5.35,.14-.43,.24-.76,.31-1.01-.24-.73-.5-1.45-.78-2.17l-.73-1.9,.8-1.87c.19-.44,.71-1.9,1.51-6.04,.62-3.24,1.3-7.53,2.01-12.77v-3.72c0-1.25,.03-2.71,.08-4.35-.1-.02-.21-.04-.32-.06l-.97,.67-.93,.22c-1.23,.28-2.48,.57-3.75,.85-1.15,.26-2.43,.57-3.79,.93-9.66,2.69-19.28,5.36-28.81,7.97l-.65,.18h-.67c-2.31,0-4.36-1.02-5.78-2.86-1.15-1.5-1.74-3.35-1.74-5.5,0-1.15,.29-2.5,.96-4.52,.47-1.4,1.14-3.08,2.05-5.1,.19-3.02,.41-5.49,.68-7.55,.32-2.48,.71-4.39,1.19-5.83l.05-.14c1.03-2.81,2.63-5.23,4.76-7.17,2.03-1.85,4.47-3.27,7.25-4.24l.1-.03c4.57-1.49,8.93-2.5,12.97-3.01,2.27-.28,4.48-.43,6.58-.43,1.35,0,2.67,.06,3.96,.18,3.81-1.06,7.96-1.87,12.36-2.41,4.71-.58,9.98-.88,15.67-.88,1.32,0,3.02,.18,5.35,.55,2.15,.35,3.38,.43,4.03,.43h.39l.39,.06c1.98,.31,3.5,.63,4.65,.97,.7,.19,1.59,.4,2.66,.64l3.67-1.05,.98,.11c1.58,.18,3.19,.77,4.8,1.77,.3,.19,.62,.38,.98,.59,.34-.17,.69-.34,1.07-.51l1.01-.47h1.11c2.39,0,4.59,.84,6.31,2.4,3.3-.92,6.46-1.57,9.45-1.94,2.27-.28,4.48-.43,6.58-.43,1.35,0,2.67,.06,3.96,.18,3.81-1.06,7.96-1.87,12.36-2.41,4.71-.58,9.98-.88,15.67-.88,1.32,0,3.02,.18,5.35,.55,2.15,.35,3.38,.43,4.03,.43h.39l.39,.06c1.98,.31,3.5,.63,4.65,.97,.7,.19,1.59,.4,2.66,.64l3.67-1.05,.98,.11c1.58,.18,3.19,.77,4.8,1.77,.3,.19,.62,.38,.98,.59,.34-.17,.69-.34,1.07-.51l1.01-.47h1.11c2.87,0,5.46,1.22,7.28,3.42,1.48,1.79,2.44,4.16,2.85,7.03l.05,.35v4.77c0,1.62-.11,3.35-.31,5.13,0,.06-.06,.62,.14,2.33,.21,1.81,.31,3.19,.31,4.23,0,2.98-1.18,4.79-2.17,5.78-1.41,1.42-3.27,2.16-5.36,2.16-3.83,0-7.66-.33-11.37-.99-3.28-.58-6.6-1.42-9.88-2.5-1.3,.23-2.54,.44-3.7,.62,.54,.71,1.07,1.55,1.61,2.54,.97,1.77,1.94,4.04,2.98,6.94,.48,1.32,.82,2.64,1.01,3.88,.18,1.17,.27,2.31,.27,3.4,0,2.18-.2,4.79-.6,7.98-.4,3.17-.85,5.72-1.37,7.8-.81,3.51-1.46,6.49-1.9,8.78-.48,2.46-.86,4.25-1.14,5.48-.14,.71-.25,1.6-.32,2.66-.09,1.29-.19,2.76-.28,4.4-.13,1.87-.56,3.96-1.34,6.46-.58,1.86-1.17,4-1.75,6.37-.04,1.34-.2,2.83-.49,4.43-.29,1.65-.68,3.56-1.17,5.7-.34,1.48-.85,3.06-1.55,4.85-.44,1.12-.89,2.45-1.32,3.94,.14,1.18,.25,2.41,.32,3.65l.03,.51-.07,.51c-.37,2.6-.74,5.29-1.11,8.07-.56,4.04-1.12,8.1-1.68,12.2-.56,4.14-1.08,8.12-1.53,11.83l-.1,.86-.39,.77c-.38,.76-.78,1.59-1.21,2.48,.04,.31,.1,.71,.19,1.23,.29,1.67,.42,3.02,.42,4.14,0,1.36-.2,3.09-.64,5.46-.44,2.37-.48,3.28-.48,3.5,0,1.78-.05,4.52-.14,8.39-.08,3.21-.13,5.75-.14,7.57,.41,1.41,.78,2.79,1.11,4.11l.28,1.13-.24,1.14c-.34,1.61-.73,2.92-1.17,4-.64,1.56-1.57,2.85-2.76,3.84l-.28,.23-.31,.19c-1.52,.93-2.96,1.73-4.31,2.4-.71,.7-1.32,1.29-1.85,1.77-1.56,1.44-3.24,2.17-5,2.17Z" fill="#ff0000"/><path d="M290.05,14.89c1.03,0,2.54,.16,4.55,.49,2.01,.33,3.62,.49,4.83,.49,1.77,.28,3.13,.56,4.06,.84,1.03,.28,2.43,.61,4.2,.98l3.92-1.12c.84,.09,1.75,.44,2.73,1.05,.98,.61,2.17,1.28,3.57,2.03,.75-.47,1.82-1.03,3.22-1.68,1.4,0,2.54,.54,3.43,1.61,.89,1.07,1.47,2.59,1.75,4.55v4.41c0,1.45-.09,2.96-.28,4.55-.09,.75-.05,1.91,.14,3.5,.19,1.59,.28,2.8,.28,3.64,0,1.03-.23,1.77-.7,2.24-.47,.47-1.07,.7-1.82,.7-3.55,0-7.05-.3-10.5-.91-3.46-.61-6.91-1.52-10.36-2.73-2.99,.56-5.6,.98-7.84,1.26-1.77,.19-3.08,.47-3.92,.84-.84,.37-1.26,.84-1.26,1.4,.37,.65,.89,1.35,1.54,2.1,.65,.75,1.45,1.45,2.38,2.1,.65,.47,1.4,1.47,2.24,3.01,.84,1.54,1.73,3.62,2.66,6.23,.37,1.03,.63,2.01,.77,2.94,.14,.93,.21,1.82,.21,2.66,0,1.96-.19,4.41-.56,7.35-.37,2.94-.79,5.35-1.26,7.21-.84,3.64-1.49,6.65-1.96,9.03-.47,2.38-.84,4.18-1.12,5.39-.19,.93-.33,2.05-.42,3.36-.09,1.31-.19,2.8-.28,4.48-.09,1.4-.47,3.15-1.12,5.25-.65,2.1-1.31,4.5-1.96,7.21,0,1.21-.14,2.61-.42,4.2-.28,1.59-.65,3.41-1.12,5.46-.28,1.21-.72,2.59-1.33,4.13-.61,1.54-1.19,3.34-1.75,5.39,.19,1.4,.33,2.85,.42,4.34-.37,2.61-.75,5.32-1.12,8.12-.56,4.01-1.12,8.08-1.68,12.18-.56,4.11-1.08,8.08-1.54,11.9-.56,1.12-1.17,2.38-1.82,3.78,0,.65,.12,1.66,.35,3.01,.23,1.35,.35,2.45,.35,3.29,0,1.03-.19,2.54-.56,4.55-.37,2.01-.56,3.48-.56,4.41,0,1.77-.05,4.53-.14,8.26-.09,3.73-.14,6.54-.14,8.4,.47,1.59,.89,3.13,1.26,4.62-.28,1.31-.58,2.36-.91,3.15-.33,.79-.77,1.42-1.33,1.89-1.68,1.03-3.22,1.87-4.62,2.52-.93,.93-1.7,1.68-2.31,2.24-.61,.56-1.14,.84-1.61,.84-2.05,0-3.5-.28-4.34-.84-.84-.56-1.26-1.31-1.26-2.24,.19-3.08,.51-6.07,.98-8.96-.19-.37-.4-.93-.63-1.68-.23-.75-.58-1.68-1.05-2.8-.47-7.28-1.07-14.75-1.82-22.41,.28-5.51,.42-11.06,.42-16.66,0-2.61,.12-5.9,.35-9.87,.23-3.97,.68-8.56,1.33-13.79,.65-5.23,1.12-9.8,1.4-13.72,.28-3.92,.42-7.14,.42-9.66,0-1.12,.12-2.54,.35-4.27,.23-1.73,.49-3.85,.77-6.37,.28-2.15,.56-4.08,.84-5.81,.28-1.73,.42-3.29,.42-4.69,0-.75-.05-1.54-.14-2.38-.09-.84-.19-1.59-.28-2.24,.93-2.33,1.63-4.22,2.1-5.67,.47-1.45,.7-2.4,.7-2.87-.37-1.21-.79-2.43-1.26-3.64,.56-1.31,1.17-3.66,1.82-7.07,.65-3.41,1.35-7.86,2.1-13.37v-4.06c0-1.59,.05-3.5,.14-5.74l-.84-2.52c-.38-.19-1.05-.42-2.03-.7-.98-.28-2.22-.51-3.71-.7l-1.82,1.26c-1.21,.28-2.45,.56-3.71,.84-1.26,.28-2.59,.61-3.99,.98-9.71,2.71-19.32,5.37-28.85,7.98-.75,0-1.35-.3-1.82-.91-.47-.61-.7-1.42-.7-2.45,0-.56,.23-1.54,.7-2.94,.47-1.4,1.21-3.22,2.24-5.46,0-.05,0-.09,0-.13-.47-.07-.94-.13-1.4-.22-3.46-.61-6.91-1.52-10.36-2.73-2.99,.56-5.6,.98-7.84,1.26-1.77,.19-3.08,.47-3.92,.84-.84,.37-1.26,.84-1.26,1.4,.37,.65,.89,1.35,1.54,2.1,.65,.75,1.45,1.45,2.38,2.1,.65,.47,1.4,1.47,2.24,3.01,.84,1.54,1.73,3.62,2.66,6.23,.37,1.03,.63,2.01,.77,2.94,.14,.93,.21,1.82,.21,2.66,0,1.96-.19,4.41-.56,7.35-.37,2.94-.79,5.35-1.26,7.21-.84,3.64-1.49,6.65-1.96,9.03-.47,2.38-.84,4.18-1.12,5.39-.19,.93-.33,2.05-.42,3.36-.09,1.31-.19,2.8-.28,4.48-.09,1.4-.47,3.15-1.12,5.25-.65,2.1-1.31,4.5-1.96,7.21,0,1.21-.14,2.61-.42,4.2-.28,1.59-.65,3.41-1.12,5.46-.28,1.21-.72,2.59-1.33,4.13-.61,1.54-1.19,3.34-1.75,5.39,.19,1.4,.33,2.85,.42,4.34-.37,2.61-.75,5.32-1.12,8.12-.56,4.01-1.12,8.08-1.68,12.18-.56,4.11-1.08,8.08-1.54,11.9-.56,1.12-1.17,2.38-1.82,3.78,0,.65,.12,1.66,.35,3.01,.23,1.35,.35,2.45,.35,3.29,0,1.03-.19,2.54-.56,4.55-.37,2.01-.56,3.48-.56,4.41,0,1.77-.05,4.53-.14,8.26-.09,3.73-.14,6.54-.14,8.4,.47,1.59,.89,3.13,1.26,4.62-.28,1.31-.58,2.36-.91,3.15-.33,.79-.77,1.42-1.33,1.89-1.68,1.03-3.22,1.87-4.62,2.52-.93,.93-1.7,1.68-2.31,2.24-.61,.56-1.14,.84-1.61,.84-2.05,0-3.5-.28-4.34-.84-.84-.56-1.26-1.31-1.26-2.24,.19-3.08,.51-6.07,.98-8.96-.19-.37-.4-.93-.63-1.68-.23-.75-.58-1.68-1.05-2.8-.47-7.28-1.07-14.75-1.82-22.41,.28-5.51,.42-11.06,.42-16.66,0-2.61,.12-5.9,.35-9.87,.23-3.97,.68-8.56,1.33-13.79,.65-5.23,1.12-9.8,1.4-13.72,.28-3.92,.42-7.14,.42-9.66,0-1.12,.12-2.54,.35-4.27,.23-1.73,.49-3.85,.77-6.37,.28-2.15,.56-4.08,.84-5.81,.28-1.73,.42-3.29,.42-4.69,0-.75-.05-1.54-.14-2.38-.09-.84-.19-1.59-.28-2.24,.93-2.33,1.63-4.22,2.1-5.67,.47-1.45,.7-2.4,.7-2.87-.37-1.21-.79-2.43-1.26-3.64,.56-1.31,1.17-3.66,1.82-7.07,.65-3.41,1.35-7.86,2.1-13.37v-4.06c0-1.59,.05-3.5,.14-5.74l-.84-2.52c-.38-.19-1.05-.42-2.03-.7-.98-.28-2.22-.51-3.71-.7l-1.82,1.26c-1.21,.28-2.45,.56-3.71,.84-1.26,.28-2.59,.61-3.99,.98-9.71,2.71-19.32,5.37-28.85,7.98-.75,0-1.35-.3-1.82-.91-.47-.61-.7-1.42-.7-2.45,0-.56,.23-1.54,.7-2.94,.47-1.4,1.21-3.22,2.24-5.46,.19-3.27,.42-5.97,.7-8.12,.28-2.15,.61-3.78,.98-4.9,.75-2.05,1.89-3.78,3.43-5.18,1.54-1.4,3.38-2.47,5.53-3.22,4.29-1.4,8.31-2.33,12.04-2.8,2.07-.26,4.06-.39,5.96-.39,1.52,0,2.99,.08,4.4,.25,3.83-1.12,8-1.96,12.53-2.52,4.53-.56,9.54-.84,15.05-.84,1.03,0,2.54,.16,4.55,.49,2.01,.33,3.62,.49,4.83,.49,1.77,.28,3.13,.56,4.06,.84,1.03,.28,2.43,.61,4.2,.98l3.92-1.12c.84,.09,1.75,.44,2.73,1.05,.98,.61,2.17,1.28,3.57,2.03,.75-.47,1.82-1.03,3.22-1.68,1.4,0,2.54,.54,3.43,1.61,.37,.45,.68,.99,.94,1.6,4.28-1.39,8.28-2.32,12.01-2.79,2.07-.26,4.06-.39,5.96-.39,1.52,0,2.99,.08,4.4,.25,3.83-1.12,8-1.96,12.53-2.52,4.53-.56,9.54-.84,15.05-.84m0-10c-5.89,0-11.37,.31-16.28,.92-4.32,.53-8.41,1.31-12.22,2.32-1.14-.08-2.31-.12-3.49-.12-2.31,0-4.73,.16-7.2,.46-2.51,.31-5.12,.81-7.82,1.47-2.18-1.29-4.67-1.97-7.33-1.97h-2.22l-.74,.34c-1.8-.91-3.62-1.48-5.45-1.68l-1.96-.22-1.9,.54-1.49,.42c-.5-.12-.88-.22-1.16-.29-1.37-.4-3.03-.75-5.23-1.1l-.78-.12h-.79c-.31,0-1.24-.03-3.21-.36-2.62-.42-4.57-.62-6.17-.62-5.89,0-11.37,.31-16.28,.92-4.32,.53-8.41,1.31-12.22,2.32-1.14-.08-2.31-.12-3.49-.12-2.31,0-4.73,.16-7.2,.46-4.36,.55-9.04,1.63-13.91,3.22l-.1,.03-.1,.03c-3.42,1.19-6.44,2.96-8.97,5.26-2.74,2.49-4.79,5.57-6.1,9.16l-.05,.14-.05,.14c-.59,1.77-1.04,3.92-1.41,6.76-.26,1.96-.47,4.25-.65,6.99-.79,1.82-1.41,3.37-1.86,4.72-.85,2.56-1.22,4.39-1.22,6.11,0,4.08,1.51,6.9,2.77,8.55,2.35,3.06,5.91,4.82,9.75,4.82h1.35l1.3-.36c9.33-2.56,19.03-5.24,28.83-7.98,1.2-.32,2.32-.59,3.34-.82v1.14c-.69,4.99-1.33,9.09-1.92,12.17-.74,3.86-1.18,4.98-1.2,5.03l-1.6,3.74,1.47,3.77c.06,.15,.12,.31,.17,.46-.39,1.15-.95,2.64-1.67,4.42l-.99,2.47,.37,2.63c.08,.57,.16,1.23,.24,1.96,.05,.47,.08,.9,.08,1.27,0,.86-.1,1.9-.29,3.09-.29,1.8-.59,3.86-.88,6.12v.1l-.02,.1c-.27,2.39-.52,4.46-.74,6.14-.3,2.18-.44,4.01-.44,5.61,0,2.26-.13,5.28-.39,8.95-.26,3.69-.72,8.13-1.35,13.2-.68,5.43-1.15,10.29-1.39,14.44-.24,4.14-.37,7.66-.37,10.46,0,5.4-.14,10.83-.41,16.16l-.04,.74,.07,.74c.73,7.47,1.33,14.9,1.79,22.08l.11,1.66,.64,1.54c.34,.82,.54,1.36,.65,1.69-.32,2.39-.55,4.84-.7,7.32l-.02,.3v.3c0,4.29,2.08,8.14,5.71,10.56,2.58,1.72,5.72,2.52,9.89,2.52,2.1,0,5.27-.61,8.39-3.49,.42-.38,.89-.83,1.4-1.34,1.26-.65,2.59-1.4,3.97-2.25l.62-.38,.56-.46c1.82-1.51,3.22-3.45,4.18-5.76,.57-1.38,1.04-2.97,1.45-4.87l.49-2.27-.57-2.25c-.29-1.15-.61-2.35-.95-3.57,.02-1.72,.06-3.99,.13-6.76,.1-3.88,.14-6.65,.14-8.47,0-.12,.06-.83,.39-2.62,.5-2.69,.73-4.71,.73-6.38,0-1.32-.14-2.83-.43-4.61,.17-.34,.33-.68,.5-1.01l.77-1.55,.21-1.72c.45-3.69,.96-7.64,1.52-11.76,.56-4.1,1.12-8.15,1.68-12.15v-.06c.36-2.68,.74-5.38,1.12-8.02l.15-1.02-.06-1.03c-.06-.97-.14-1.93-.23-2.87,.3-.96,.59-1.82,.89-2.56,.8-2.04,1.38-3.85,1.77-5.56,.51-2.25,.92-4.24,1.22-5.97,.29-1.65,.47-3.17,.54-4.6,.52-2.07,1.03-3.95,1.54-5.58,.9-2.89,1.4-5.35,1.55-7.55v-.13c.09-1.59,.19-3.04,.28-4.3,.07-1.01,.16-1.64,.23-2.01,.29-1.29,.66-3.05,1.15-5.54,.44-2.23,1.07-5.13,1.87-8.63,.56-2.25,1.03-4.96,1.46-8.28,.35-2.75,.55-5.12,.62-7.19,1.43,.58,2.98,.88,4.58,.88h1.35l1.3-.36c9.34-2.56,19.03-5.24,28.83-7.98,1.2-.32,2.32-.59,3.34-.82v1.14c-.69,4.99-1.33,9.09-1.92,12.17-.74,3.86-1.18,4.98-1.2,5.03l-1.6,3.74,1.47,3.77c.06,.15,.12,.31,.17,.46-.39,1.15-.95,2.64-1.67,4.42l-.99,2.47,.37,2.63c.08,.57,.16,1.23,.25,1.96,.05,.47,.08,.9,.08,1.27,0,.86-.1,1.9-.29,3.09-.29,1.8-.59,3.86-.88,6.12v.1l-.02,.1c-.27,2.4-.52,4.46-.74,6.14-.3,2.18-.44,4.01-.44,5.61,0,2.26-.13,5.28-.39,8.95-.26,3.69-.72,8.13-1.35,13.2-.68,5.43-1.15,10.29-1.39,14.44-.24,4.14-.37,7.66-.37,10.46,0,5.4-.14,10.83-.41,16.16l-.04,.74,.07,.74c.73,7.47,1.33,14.9,1.79,22.08l.11,1.66,.64,1.54c.34,.82,.54,1.36,.65,1.69-.32,2.39-.55,4.84-.7,7.32l-.02,.3v.3c0,4.29,2.08,8.14,5.71,10.56,2.58,1.72,5.72,2.52,9.89,2.52,2.1,0,5.27-.61,8.39-3.49,.42-.38,.89-.83,1.4-1.34,1.26-.65,2.59-1.4,3.97-2.24l.62-.38,.56-.46c1.82-1.51,3.22-3.45,4.18-5.76,.57-1.38,1.04-2.97,1.45-4.87l.49-2.27-.56-2.25c-.29-1.15-.61-2.35-.95-3.57,.02-1.72,.06-3.99,.13-6.76,.1-3.88,.14-6.65,.14-8.47,0-.12,.06-.83,.39-2.62,.5-2.69,.73-4.71,.73-6.38,0-1.32-.14-2.83-.43-4.61,.17-.34,.33-.68,.5-1.01l.77-1.55,.21-1.72c.45-3.69,.96-7.65,1.52-11.76,.56-4.1,1.12-8.15,1.68-12.15v-.06c.37-2.68,.74-5.38,1.12-8.02l.15-1.02-.06-1.03c-.06-.97-.14-1.93-.23-2.87,.3-.96,.59-1.82,.89-2.56,.8-2.04,1.38-3.85,1.77-5.56,.51-2.25,.92-4.24,1.22-5.97,.29-1.65,.47-3.17,.54-4.6,.52-2.07,1.03-3.95,1.54-5.58,.9-2.89,1.4-5.35,1.55-7.55v-.13c.09-1.59,.19-3.04,.28-4.3,.07-1.01,.16-1.64,.23-2.01,.29-1.29,.66-3.05,1.15-5.54,.44-2.23,1.07-5.13,1.87-8.64,.56-2.25,1.03-4.96,1.46-8.28,.43-3.4,.64-6.22,.64-8.61,0-1.34-.11-2.73-.32-4.15-.24-1.57-.66-3.2-1.26-4.86-.22-.63-.45-1.23-.67-1.8,1.37,.32,2.74,.6,4.1,.84,3.99,.7,8.11,1.06,12.23,1.06,3.4,0,6.55-1.29,8.9-3.63,1.65-1.65,3.63-4.61,3.63-9.31,0-1.25-.11-2.78-.35-4.81-.09-.77-.11-1.19-.12-1.36,.22-1.91,.33-3.77,.33-5.53v-5.12l-.1-.7c-.54-3.8-1.87-6.99-3.94-9.5-2.8-3.39-6.76-5.24-11.14-5.24h-2.22l-.74,.34c-1.8-.91-3.62-1.48-5.45-1.68l-1.96-.22-1.9,.54-1.49,.42c-.5-.12-.88-.22-1.16-.29-1.37-.4-3.03-.75-5.22-1.1l-.78-.12h-.79c-.31,0-1.24-.03-3.21-.36-2.62-.42-4.57-.62-6.17-.62h0Z" fill="#333"/></g><g><path d="M318.05,238.06c-3.09,0-5.71-1.18-7.56-3.42-1.65-2-2.48-4.74-2.48-8.16,0-2.7,.31-5.8,.92-9.21,.59-3.3,1.53-6.94,2.79-10.83,1.3-4.9,2.43-8.96,3.38-12.08,1.08-3.54,1.3-5.1,1.34-5.72l.05-.87,.34-.8c.13-.3,.44-1.1,1.11-3.1,.56-1.66,1.2-3.69,1.93-6.05l.08-.23c.21-.59,.42-1.2,.63-1.84-2.22-.41-4.05-1.62-5.21-3.48-.97-1.55-1.46-3.43-1.46-5.59,0-1.03,.14-2.15,.41-3.31,.14-.59,.31-1.22,.52-1.91-.15-.71-.24-1.36-.29-1.96-.06-.8-.08-1.47-.08-2.05,0-3.61,.47-6.81,1.39-9.52,1-2.92,2.53-5.43,4.56-7.46,.82-.83,2.01-1.57,4.22-2.64,1.62-.78,3.66-1.68,6.25-2.74,1.13-.55,2.01-1.16,2.62-1.82,.21-.23,.41-.52,.44-1.17l.02-.39,.08-.38c.37-1.74,1.06-3.59,2.1-5.67,.87-1.74,1.9-3.65,3.07-5.7,.19-.42,.85-2.13,2.94-8.7,1.85-5.83,4.48-14.49,7.8-25.75,.97-3.56,1.95-6.7,2.93-9.34,.93-2.52,1.73-4.66,2.38-6.43,3.25-8.64,5.82-14.01,8.1-16.95,.98-1.26,1.82-2.4,2.52-3.4l-4.85-7.65,9.02-10.4,8.28-1.65c.16-.21,.42-.6,.74-1.27,1.43-2.97,3.74-6.03,7.07-9.35l.92-.92,1.14-.32c.14-.07,.67-.33,1.83-1.11,1.33-.9,3.1-2.22,5.24-3.91,2.18-1.76,4.09-3.08,5.79-3.99,2.19-1.17,3.96-1.71,5.58-1.71,3.79,0,6.76,.96,8.83,2.86,2.16,1.98,3.3,4.66,3.3,7.74s-1.22,6.58-3.83,11.36c-1.81,3.31-2.37,5.13-2.53,5.98l16.01,8.69c2.99,1.4,4.29,4.73,5.1,7.5,.83,2.87,1.48,6.57,1.98,11.33,.55,3.68,1,6.8,1.32,9.28,.36,2.72,.53,4.88,.53,6.6v.4l-.06,.4c-.61,3.74-1.21,7.51-1.82,11.33,.89,4.96,1.87,10.21,2.91,15.61l.14,.72-.07,.73c-.48,4.7-.99,9.48-1.53,14.24,1.2,.44,2.24,1.08,3.12,1.91,1.26,1.19,2.76,3.32,2.76,6.72,0,2.52-.44,4.59-1.34,6.31-.94,1.8-2.29,3.24-4.02,4.28-.58,.36-1.05,.67-1.42,.92l1.39,6.65-2.58,20.43c-.02,1.81-.16,3.99-.45,6.65-.29,2.68-.72,5.83-1.29,9.37l-.08,.48-.17,.46c-.88,2.39-1.54,4.38-1.97,5.9-.22,.79-.35,1.33-.42,1.67,.39,1.41,.74,2.87,1.06,4.37l.22,1.06-.24,1.06c-.57,2.55-1.15,5.1-1.76,7.65-.6,2.51-1.18,4.97-1.74,7.38l-.04,.19-.06,.19c-1.3,4.16-3.08,7.23-5.43,9.4-2.59,2.38-5.79,3.63-9.25,3.63-3.01,0-5.6-1.51-7.09-4.15-1.05-1.85-1.56-4.24-1.56-7.29,0-1.26,.19-2.88,.57-4.97,.37-2,.41-2.88,.41-3.16,0-.17-.02-.68-.21-1.84-.23-1.37-.35-2.64-.35-3.76,0-2.8,.26-7.05,.79-12.99,.46-5.12,.71-9.09,.75-11.81-.41-1.39-.81-2.81-1.21-4.27l-.29-1.04,.17-1.07c.25-1.59,.42-3.23,.51-4.87,.08-1.53,.04-2.98-.11-4.28l-.19-1.6,2.07-3.73-.83-5.92c-.22,.12-1.16,.67-1.16,.67l-.5,.17c-1.36,.45-3.31,.9-5.97,1.37-2.43,.43-5.41,.69-9.09,.81-1.41,.69-2.75,1.31-4,1.86l-.45,.2-.48,.11c-1.93,.42-4.46,1.19-7.51,2.28-3.16,1.13-6.87,2.52-11.04,4.15-2.64,1.26-5.11,2.28-7.35,3.03-2.34,.78-4.36,1.2-6.15,1.29-.12,.24-.28,.6-.45,1.13-.37,1.8-1.11,4.05-2.27,6.86-1.09,2.65-2.52,5.94-4.26,9.79-.34,.95-.81,2.41-1.4,4.34-.63,2.06-1.36,4.68-2.19,7.81l-.11,.42-.18,.4c-.53,1.14-1.16,2.6-1.88,4.36-.65,1.57-1.37,3.41-2.17,5.46-.05,1.13-.17,2.4-.38,3.85-.25,1.75-.63,3.78-1.11,6.03l-.07,.32-.11,.31c-.49,1.36-1.14,3.08-1.95,5.13-.85,2.14-1.92,4.52-3.19,7.05-1.24,2.48-3.08,4.34-5.46,5.53-2.12,1.06-4.64,1.58-7.7,1.58Zm60.19-136.95c-.55,3.79-1.85,8.2-3.97,13.41-1.95,4.79-4.6,10.36-7.88,16.58,2.02-.17,3.49-.26,4.51-.26,1.19,0,3.61-.24,8.33-1.4,4.64-1.14,8.14-1.69,10.72-1.69h.53l.52,.11c.9,.2,1.82,.37,2.73,.51,1.92-.4,3.83-.86,5.68-1.37,1.93-.52,3.9-1,5.87-1.42-.11-1.91-.17-3.29-.17-4.19,0-1.95,.13-4.13,.38-6.48,.21-1.96,.51-4,.89-6.08l-1.62-6.07,.58-5.95c-.33-1.88-.61-3.69-.83-5.38-.2-1.53-.27-2.9-.22-4.14-.07-.13-.15-.28-.24-.43-.45-.8-.93-1.64-1.46-2.52-.89-1.51-1.8-2.96-2.73-4.32-.99-1.46-1.95-2.94-2.86-4.39-.85-1.12-1.69-1.92-2.52-2.39-.64-.36-1.25-.56-1.87-.61-.27,.19-.92,.76-1.87,2.21-1.67,2.54-3.29,6.64-4.82,12.17l-.06,.21-.08,.21c-.25,.67-.77,1.87-2.59,5.24-1.19,2.21-2.86,5.05-4.97,8.44Z" fill="#ff0000"/><path d="M406.62,12.09c2.51,0,4.33,.51,5.45,1.54,1.12,1.03,1.68,2.38,1.68,4.06,0,2.05-1.07,5.04-3.21,8.96-2.14,3.92-3.21,6.91-3.21,8.96,0,.93,.21,1.7,.63,2.31,.42,.61,.91,1,1.47,1.19l16.77,9.1c.93,.37,1.77,1.84,2.51,4.41,.74,2.57,1.35,6.09,1.82,10.57,.56,3.73,1,6.83,1.33,9.31,.33,2.47,.49,4.45,.49,5.95-.65,4.01-1.3,8.07-1.96,12.18,.93,5.23,1.95,10.73,3.07,16.51-.56,5.5-1.16,11.1-1.82,16.79,0,.56,.12,1.05,.35,1.47,.23,.42,.58,.68,1.05,.77,1.58,.09,2.77,.51,3.56,1.26,.79,.75,1.19,1.77,1.19,3.08,0,1.68-.26,3.02-.77,4-.51,.98-1.23,1.75-2.16,2.31-1.21,.75-2.17,1.4-2.86,1.96-.7,.56-1.19,1.03-1.47,1.4l1.82,8.69-2.51,19.9c0,1.68-.14,3.83-.42,6.45-.28,2.62-.7,5.65-1.25,9.11-.93,2.52-1.63,4.63-2.1,6.31-.47,1.68-.7,2.8-.7,3.36,.46,1.59,.88,3.27,1.26,5.05-.56,2.52-1.14,5.05-1.75,7.57-.61,2.52-1.19,5-1.75,7.43-1.02,3.27-2.37,5.67-4.05,7.22-1.68,1.54-3.63,2.31-5.86,2.31-1.22,0-2.13-.54-2.73-1.61-.61-1.08-.91-2.69-.91-4.84,0-.93,.16-2.29,.49-4.06,.33-1.77,.49-3.13,.49-4.07,0-.65-.09-1.54-.28-2.66-.19-1.12-.28-2.1-.28-2.94,0-2.61,.26-6.79,.77-12.54,.51-5.75,.77-10.06,.77-12.96-.47-1.59-.93-3.22-1.4-4.9,.28-1.77,.47-3.57,.56-5.39,.09-1.82,.05-3.53-.14-5.12l2.1-3.78-1.82-13.03-.98-.42c-.56,0-1.38,.21-2.46,.63s-2.41,1.1-3.99,2.03c-1.12,.37-2.87,.77-5.26,1.19-2.38,.42-5.54,.68-9.46,.77-1.68,.84-3.27,1.59-4.76,2.24-2.15,.47-4.86,1.29-8.13,2.45-3.27,1.17-7.05,2.59-11.35,4.27-2.52,1.21-4.83,2.17-6.94,2.87s-3.86,1.05-5.26,1.05c-1.12,0-2.05,.42-2.8,1.26-.75,.84-1.35,2.05-1.82,3.64-.28,1.5-.96,3.55-2.03,6.17-1.08,2.61-2.5,5.88-4.28,9.81-.37,1.03-.89,2.61-1.54,4.76-.65,2.15-1.4,4.81-2.24,7.99-.56,1.21-1.21,2.73-1.96,4.55s-1.59,3.94-2.52,6.37c0,1.12-.12,2.5-.35,4.13-.23,1.64-.58,3.53-1.05,5.67-.47,1.31-1.1,2.96-1.89,4.98-.79,2.01-1.8,4.22-3.01,6.65-.75,1.49-1.82,2.59-3.22,3.29-1.4,.7-3.22,1.05-5.46,1.05-1.59,0-2.82-.54-3.71-1.61-.89-1.07-1.33-2.73-1.33-4.97,0-2.43,.28-5.21,.84-8.33,.56-3.13,1.45-6.56,2.66-10.29,1.31-4.95,2.43-8.96,3.36-12.04,.94-3.08,1.45-5.37,1.54-6.86,.28-.65,.7-1.82,1.26-3.5,.56-1.68,1.22-3.73,1.96-6.16,.84-2.33,1.63-4.99,2.38-7.98l-.7-1.12-4.49,.7c-1.03-.09-1.77-.51-2.24-1.26-.47-.75-.7-1.73-.7-2.94,0-.65,.09-1.38,.28-2.17,.19-.79,.47-1.75,.84-2.87-.28-1.03-.44-1.87-.49-2.52-.05-.65-.07-1.21-.07-1.68,0-3.08,.37-5.72,1.12-7.91,.75-2.19,1.87-4.04,3.37-5.53,.37-.37,1.33-.93,2.87-1.68,1.54-.75,3.57-1.63,6.1-2.66,1.77-.84,3.2-1.84,4.27-3.01,1.07-1.17,1.66-2.59,1.75-4.27,.28-1.31,.84-2.8,1.68-4.48,.84-1.68,1.82-3.5,2.94-5.46,.37-.56,1.5-3.78,3.37-9.66,1.87-5.88,4.48-14.52,7.85-25.91,.93-3.45,1.87-6.44,2.8-8.96,.93-2.52,1.73-4.67,2.38-6.44,2.99-7.93,5.44-13.14,7.36-15.61,1.92-2.47,3.34-4.5,4.27-6.09v-.7l-4.34-6.86,5.46-6.3,7.01-1.4c1.4-.19,2.68-1.49,3.85-3.92,1.17-2.43,3.2-5.09,6.1-7.98,.65-.19,1.7-.77,3.15-1.75,1.45-.98,3.29-2.36,5.54-4.13,1.96-1.59,3.64-2.75,5.05-3.5,1.4-.75,2.47-1.12,3.22-1.12m-44.82,124.31c.93,0,2.45-.09,4.55-.28,2.1-.19,3.62-.28,4.55-.28,2.15,0,5.32-.52,9.52-1.55s7.37-1.55,9.52-1.55c1.31,.28,2.61,.52,3.92,.7,2.33-.47,4.62-1.01,6.87-1.62,2.24-.61,4.53-1.15,6.87-1.62,.93-.19,1.63-.54,2.1-1.05,.47-.51,.7-1.19,.7-2.03-.19-2.8-.28-4.71-.28-5.74,0-1.77,.12-3.76,.35-5.95,.23-2.19,.58-4.46,1.05-6.79l-1.68-6.3,.56-5.74c-.37-2.05-.68-3.99-.91-5.81-.23-1.82-.26-3.34-.07-4.55-.19-.37-.51-.98-.98-1.82-.47-.84-.98-1.73-1.54-2.66-.93-1.59-1.89-3.1-2.87-4.55-.98-1.45-1.94-2.92-2.87-4.41-1.31-1.77-2.71-3.08-4.2-3.92-1.49-.84-3.03-1.26-4.62-1.26-1.87,0-3.78,1.49-5.74,4.48-1.96,2.99-3.78,7.52-5.46,13.58-.28,.75-1.05,2.29-2.31,4.62-1.26,2.33-3.06,5.37-5.39,9.1-.37,3.55-1.63,7.96-3.78,13.23-2.15,5.28-5.14,11.46-8.96,18.56-.47,.66-.72,1.22-.77,1.69-.05,.47-.07,.98-.07,1.55,0,.66,.16,1.15,.49,1.48,.33,.33,.82,.49,1.47,.49M406.62,2.09c-2.47,0-4.99,.73-7.93,2.3-1.98,1.06-4.13,2.53-6.59,4.52-2.02,1.6-3.67,2.83-4.89,3.66-.44,.3-.74,.48-.93,.6l-1.86,.53-1.84,1.83c-3.37,3.37-5.84,6.55-7.53,9.71l-4.32,.86-3.36,.67-2.24,2.59-5.46,6.3-4.87,5.62,3.98,6.28,1.03,1.63c-.14,.18-.28,.36-.42,.55-2.62,3.39-5.34,9-8.81,18.21v.03l-.02,.03c-.65,1.77-1.44,3.91-2.38,6.42-1.02,2.77-2.05,6.03-3.05,9.71-3.31,11.2-5.92,19.81-7.75,25.6-1.76,5.53-2.45,7.43-2.68,8.02-1.15,2.02-2.17,3.92-3.04,5.66-1.23,2.46-2.05,4.7-2.51,6.86l-.02,.08c-.09,.05-.2,.11-.31,.17-2.61,1.07-4.7,1.99-6.37,2.8-2.77,1.34-4.34,2.36-5.59,3.62-2.56,2.56-4.5,5.71-5.75,9.36-1.1,3.24-1.66,6.99-1.66,11.15,0,.7,.03,1.48,.09,2.38,.03,.45,.08,.9,.15,1.37-.1,.35-.18,.69-.26,1.02-.37,1.56-.55,3.06-.55,4.47,0,3.11,.75,5.88,2.22,8.24,.88,1.4,2,2.6,3.31,3.54-.45,1.44-.86,2.72-1.23,3.82-.69,2.06-.94,2.66-.96,2.73l-.69,1.6-.11,1.74s-.1,1.18-1.13,4.57c-.96,3.16-2.1,7.23-3.39,12.13-1.3,4.05-2.28,7.87-2.91,11.34-.67,3.77-1,7.07-1,10.1,0,4.61,1.22,8.42,3.61,11.33,2.81,3.39,6.86,5.25,11.43,5.25,3.8,0,7.14-.71,9.94-2.11,3.32-1.66,5.98-4.34,7.69-7.76,1.33-2.67,2.47-5.17,3.37-7.45,.83-2.1,1.5-3.88,2.01-5.29l.22-.61,.14-.64c.51-2.36,.91-4.51,1.18-6.38,.18-1.27,.31-2.43,.38-3.5,.67-1.73,1.29-3.28,1.85-4.63,.69-1.69,1.3-3.09,1.79-4.16l.37-.79,.22-.84c.81-3.06,1.53-5.63,2.14-7.63,.63-2.06,1.02-3.25,1.26-3.93,1.72-3.82,3.15-7.1,4.24-9.75,.84-2.04,1.48-3.81,1.94-5.37,1.23-.26,2.52-.61,3.88-1.06,2.39-.79,5-1.86,7.76-3.18,4.05-1.58,7.66-2.94,10.73-4.04,2.85-1.02,5.17-1.72,6.89-2.1l.97-.21,.91-.4c1.03-.45,2.11-.94,3.23-1.48,3.44-.14,6.32-.42,8.73-.85,.46-.08,.9-.16,1.33-.24l-.96,1.73,.37,3.2c.12,1.03,.15,2.19,.08,3.45-.08,1.46-.23,2.92-.45,4.34l-.34,2.14,.58,2.09c.35,1.26,.69,2.45,1.02,3.59-.07,2.56-.3,6.15-.71,10.71-.54,6.08-.81,10.48-.81,13.43,0,1.42,.14,2.93,.42,4.6,.1,.6,.13,.92,.14,1.04,0,.15-.06,.79-.32,2.23-.45,2.41-.65,4.28-.65,5.86,0,3.94,.72,7.13,2.2,9.76,2.37,4.19,6.64,6.69,11.44,6.69s9.11-1.71,12.63-4.95c3.02-2.78,5.25-6.57,6.82-11.59l.12-.37,.09-.38c.55-2.39,1.13-4.86,1.72-7.33,.61-2.56,1.21-5.15,1.78-7.73l.47-2.11-.45-2.12c-.24-1.15-.51-2.28-.79-3.39,.02-.09,.05-.19,.08-.29,.39-1.4,1-3.25,1.84-5.51l.34-.92,.16-.96c.58-3.62,1.03-6.86,1.32-9.63,.29-2.68,.44-4.92,.47-6.84l2.44-19.32,.21-1.66-.34-1.64-.53-2.53c1.77-1.39,3.23-3.14,4.28-5.16,1.28-2.46,1.9-5.28,1.9-8.62,0-4.04-1.53-7.72-4.32-10.35-.35-.33-.76-.68-1.23-1.02,.41-3.68,.79-7.36,1.16-10.99l.15-1.46-.28-1.45c-.98-5.08-1.9-10.02-2.75-14.71,.56-3.53,1.12-7.02,1.69-10.47l.13-.8v-.81c0-1.94-.19-4.32-.58-7.25-.33-2.49-.77-5.6-1.32-9.26-.53-5.01-1.23-8.96-2.13-12.09-.65-2.24-2.33-7.99-7.64-10.57l-12.03-6.53c.2-.39,.42-.81,.67-1.28,3.03-5.54,4.44-9.91,4.44-13.76,0-4.46-1.75-8.52-4.92-11.42-3.02-2.77-7.12-4.17-12.21-4.17h0Zm-23.6,100.8c1.92-3.12,3.43-5.7,4.59-7.84,1.95-3.61,2.53-4.95,2.88-5.86l.16-.41,.12-.43c1.14-4.11,2.18-6.81,2.99-8.55,.65,1.01,1.31,2.02,2,3.02,.86,1.28,1.72,2.63,2.54,4.02l.02,.04,.02,.04c.34,.56,.66,1.12,.98,1.67,.02,1.1,.11,2.26,.27,3.49,.2,1.56,.45,3.21,.74,4.93l-.43,4.38-.18,1.8,.47,1.75,1.1,4.12c-.32,1.82-.57,3.61-.75,5.35-.27,2.52-.41,4.88-.41,7,0,.08,0,.17,0,.26-.67,.17-1.34,.34-2.01,.52-1.47,.4-2.97,.77-4.49,1.1-.53-.09-1.05-.2-1.57-.31l-1.04-.23h-1.07c-3.02,0-6.81,.58-11.91,1.84-1.21,.3-2.24,.52-3.1,.7,1.53-3.18,2.86-6.15,3.97-8.87,2.08-5.12,3.44-9.57,4.12-13.52h0Z" fill="#333"/></g><g><path d="M519.69,226.3c-1.79,0-3.77-.26-5.87-.77-1.78-.43-3.71-.95-5.72-1.52-2.37-.64-4.43-1.2-6.12-1.67-1.71-.48-2.72-.63-3.28-.68l-1.83-.15-1.79-1.79-2.22-.31c-2.66-.2-5.5-1.34-8.68-3.5-2.75-1.87-5.72-4.45-8.83-7.66-2.95-2.95-5.43-5.87-7.32-8.63-1.98-2.89-3.39-5.5-4.29-7.98l-.07-.21-3.78-12.04c-1.32-4.15-2.34-7.59-3.01-10.19-1.01-3.9-1.12-5.53-.96-6.78l.04-.29,1.26-5.15c-.54-1.58-.98-2.96-1.33-4.13-.57-1.91-.84-3.39-.84-4.66,0-.72,.09-2.16,.74-7.47,.47-3.83,1.12-9.15,1.96-15.97l.11-.85,.38-.77c.59-1.18,1.24-2.66,1.93-4.39,.57-1.43,1.12-3.04,1.65-4.81l-.32-2.37v-.34c0-1.29,.25-2.7,.75-4.18,.38-1.14,.88-2.39,1.53-3.79,2.16-4.59,4.3-9.2,6.44-13.86,2.16-4.69,4.34-9.3,6.49-13.69l.12-.23c2-3.61,4.61-7.35,7.73-11.13,3-3.62,6.49-7.43,10.37-11.31,.75-.84,1.71-1.97,2.83-3.35,1.28-1.57,2.82-3.32,4.59-5.19l.49-.51,.61-.36c1.33-.78,3.06-2.06,5.14-3.8,2.21-1.84,4.89-4.25,7.97-7.16l.69-.65,.88-.35c.79-.32,1.79-.78,2.98-1.37l4.51-2.25c.12-.09,.39-.3,.83-.71,.78-.72,1.66-1.48,2.64-2.27,1.23-1.08,3.45-2.4,13.04-5.18,9.17-2.66,12.3-3,14-3,4.6,0,8.61,.34,11.92,1.01,3.18,.65,5.89,1.67,8.09,3.05l3.55,.67,.09,.02c3.77,.85,8.88,3.57,11.86,11.7,1.99,5.46,2.96,12.9,2.96,22.72,0,4.3-.05,7.82-.14,10.47-.14,3.8-.36,5.27-.51,6.04-.56,2.79-1.18,6.29-1.86,10.42-.69,4.21-1.6,9.13-2.7,14.65-.18,1.96-.86,4.6-2.12,8.28-1.17,3.41-2.66,7.59-4.58,12.79-2.02,5.67-3.73,9.94-5.23,13-2.17,4.43-4.07,6.53-6.54,7.28l-.22,.06c-3.71,.93-7.7,1.95-11.97,3.07l-.62,.16h-.64c-2.79,0-4.69-.26-6.16-.83-2.74-1.06-4.44-3.46-4.44-6.27,0-1.07,.2-2.41,.62-4.22,.24-1.02,.32-1.54,.35-1.75-.27-3.44-.54-6.92-.81-10.45v-.38c-.01-1.05,.11-3.1,1.2-8.66,.76-3.89,1.91-8.92,3.42-14.96,1.62-6.7,3.02-11.87,4.27-15.78,1.84-5.77,2.95-7.62,3.78-8.67l.23-.29,.27-.25c2.29-2.15,3.96-4.15,4.95-5.96,1.05-1.91,1.27-3.14,1.27-3.83,0-1.65-.36-3.01-1.1-4.16-.64-1-1.63-1.79-3.02-2.41-2.22-.51-4.51-1.01-6.82-1.49-2.06-.43-4.13-.94-6.17-1.52-1.53,.54-2.95,.96-4.24,1.28-1.52,.37-2.84,.69-3.95,.97l-.2,.05-.2,.03c-5.34,.88-10.59,3.43-15.61,7.6-5.29,4.39-10.46,10.61-15.37,18.49-4.1,6.96-7.44,14.03-9.93,21-2.48,6.96-4.19,14.03-5.07,21l-.03,.2c-.37,2.24-.84,5.02-1.4,8.34-.52,3.06-1.24,6.65-2.14,10.69,.69,2.31,1.32,4.5,1.89,6.53l.26,.93-1.39,12.62c.11,.22,.27,.51,.5,.9,.8,1.38,2.08,3.47,3.82,6.21,1.18,1.83,2.28,4.02,3.23,6.46,.91,2.34,1.64,4.97,2.16,7.84,.05,.1,.14,.28,.31,.52,.19,.27,.36,.46,.53,.59l.2,.14,.18,.16c1.29,1.12,2.53,2.1,3.69,2.92l.41,.29,.34,.37c3.57,3.82,7.39,6.73,11.34,8.65,3.79,1.84,7.9,2.78,12.22,2.79,.24-.02,1.2-.12,4.58-.64,2.8-.43,6.63-1.11,11.39-2.02,1.03-.63,2.24-1.24,3.66-1.84,1.38-.59,2.99-1.21,4.8-1.85,2.05-1.9,4.18-3.32,6.33-4.24,1.51-.64,2.99-1.09,4.42-1.34,.15-.2,.31-.41,.47-.63,.85-1.13,1.92-2.34,3.2-3.62l.72-.72,.95-.38c2.35-.94,4.53-2.19,6.48-3.71,2.08-1.62,4.12-3.56,6.05-5.74l5.08-5.75,3.2,6.97c6.06,13.18,6.06,13.63,6.06,14.97v2.47l-1.96,1.5c-2.88,2.21-6.37,4.69-10.68,7.6-4.21,2.84-9.21,6-14.86,9.38-5.09,2.92-9.63,5.47-13.56,7.6-4.03,2.18-7.35,3.79-10.15,4.9-4.15,1.91-8.61,3.31-13.24,4.17-4.58,.85-9.32,1.27-14.07,1.27Z" fill="#ff0000"/><path d="M556.1,21.9c4.29,0,7.93,.3,10.92,.91,2.99,.61,5.37,1.56,7.14,2.87l4.48,.84c3.73,.84,6.49,3.69,8.26,8.54,1.77,4.85,2.66,11.86,2.66,21,0,4.3-.05,7.73-.14,10.29-.09,2.57-.23,4.32-.42,5.25-.56,2.8-1.19,6.33-1.89,10.57-.7,4.25-1.61,9.17-2.72,14.77-.09,1.49-.72,3.95-1.89,7.35-1.16,3.41-2.68,7.63-4.54,12.67-1.96,5.51-3.64,9.69-5.03,12.53-1.4,2.85-2.56,4.41-3.49,4.69-3.73,.93-7.73,1.96-12.02,3.08-2.05,0-3.5-.16-4.34-.49-.84-.33-1.26-.86-1.26-1.61,0-.65,.16-1.68,.49-3.08,.33-1.4,.49-2.38,.49-2.94-.28-3.55-.56-7.14-.84-10.78,0-1.31,.37-3.87,1.12-7.7,.75-3.83,1.87-8.73,3.36-14.7,1.58-6.53,2.98-11.69,4.18-15.47s2.18-6.14,2.93-7.07c2.69-2.52,4.67-4.92,5.92-7.21,1.25-2.29,1.88-4.36,1.88-6.23,0-2.61-.63-4.9-1.89-6.86-1.26-1.96-3.15-3.45-5.67-4.48-2.43-.56-4.88-1.1-7.35-1.61-2.47-.51-4.92-1.14-7.35-1.89-1.96,.75-3.71,1.31-5.25,1.68-1.54,.37-2.87,.7-3.99,.98-6.25,1.03-12.25,3.92-17.99,8.68-5.74,4.76-11.23,11.34-16.45,19.74-4.29,7.28-7.75,14.59-10.36,21.92-2.62,7.33-4.39,14.68-5.32,22.06-.37,2.24-.84,5.02-1.4,8.33-.56,3.31-1.35,7.21-2.38,11.69,.84,2.8,1.59,5.37,2.24,7.7l-1.4,12.74c0,.47,.42,1.42,1.26,2.87,.84,1.45,2.15,3.57,3.92,6.37,1.03,1.59,1.96,3.46,2.8,5.6,.84,2.15,1.49,4.57,1.96,7.28,.19,.65,.54,1.35,1.05,2.1,.51,.75,1.1,1.35,1.75,1.82,1.4,1.21,2.75,2.29,4.06,3.22,4.01,4.3,8.28,7.54,12.81,9.73,4.53,2.19,9.36,3.29,14.49,3.29,.47,0,2.22-.23,5.25-.7,3.03-.47,7.21-1.21,12.53-2.24,.93-.65,2.17-1.31,3.71-1.96,1.54-.65,3.38-1.35,5.53-2.1,1.87-1.87,3.73-3.2,5.6-3.99,1.87-.79,3.59-1.19,5.18-1.19,.47-.65,1.05-1.45,1.75-2.38,.7-.93,1.61-1.96,2.73-3.08,2.8-1.12,5.37-2.59,7.7-4.41,2.33-1.82,4.57-3.94,6.72-6.37,3.73,8.12,5.6,12.42,5.6,12.88-2.8,2.15-6.28,4.62-10.43,7.42-4.16,2.8-9.03,5.88-14.63,9.24-5.04,2.89-9.5,5.39-13.37,7.49-3.87,2.1-7.12,3.66-9.73,4.69-3.83,1.77-7.89,3.06-12.18,3.85-4.3,.79-8.68,1.19-13.16,1.19-1.4,0-2.96-.21-4.69-.63-1.73-.42-3.57-.91-5.53-1.47-2.43-.65-4.48-1.21-6.16-1.68-1.68-.47-3.08-.75-4.2-.84l-1.68-1.68-4.06-.56c-1.77-.09-3.9-.98-6.37-2.66-2.47-1.68-5.16-4.01-8.05-7-2.8-2.8-5.07-5.46-6.79-7.98-1.73-2.52-2.96-4.81-3.71-6.86l-3.78-12.04c-1.31-4.11-2.29-7.42-2.94-9.94-.65-2.52-.93-4.15-.84-4.9l1.54-6.3c-.75-2.15-1.33-3.92-1.75-5.32s-.63-2.47-.63-3.22,.23-3.03,.7-6.86c.47-3.83,1.12-9.15,1.96-15.96,.65-1.31,1.35-2.89,2.1-4.76,.75-1.87,1.45-3.97,2.1-6.3l-.42-3.08c0-.75,.16-1.61,.49-2.59,.33-.98,.77-2.08,1.33-3.29,2.15-4.57,4.29-9.19,6.44-13.86,2.15-4.67,4.29-9.19,6.44-13.58,1.87-3.36,4.27-6.81,7.21-10.36,2.94-3.55,6.32-7.23,10.15-11.06,.84-.93,1.87-2.15,3.08-3.64,1.21-1.49,2.66-3.13,4.34-4.9,1.59-.93,3.52-2.36,5.81-4.27,2.29-1.91,5.02-4.36,8.19-7.35,.93-.37,2.05-.89,3.36-1.54,1.31-.65,2.89-1.45,4.76-2.38,.47-.28,1.05-.75,1.75-1.4,.7-.65,1.52-1.35,2.45-2.1,1.03-.93,4.76-2.33,11.2-4.2,6.44-1.87,10.64-2.8,12.6-2.8m0-10c-2.16,0-5.67,.38-15.39,3.2-9.53,2.76-12.74,4.34-14.84,6.14-1.05,.84-2,1.67-2.84,2.45-.06,.06-.12,.11-.17,.16l-1.09,.55-2.9,1.45c-1.33,.66-2.15,1.02-2.6,1.2l-1.76,.7-1.38,1.3c-3.01,2.84-5.62,5.18-7.75,6.96-2.32,1.94-3.71,2.88-4.46,3.32l-1.22,.72-.97,1.03c-1.86,1.96-3.49,3.8-4.84,5.47-1.03,1.27-1.9,2.3-2.58,3.07-3.95,3.96-7.51,7.85-10.58,11.56-3.33,4.01-6.1,8.01-8.26,11.89l-.13,.23-.11,.23c-2.17,4.43-4.37,9.08-6.54,13.8-2.16,4.69-4.32,9.33-6.41,13.79v.03l-.03,.03c-.73,1.58-1.3,2.99-1.74,4.33-.66,1.96-1,3.91-1,5.74v.68l.09,.67,.13,.95c-.38,1.22-.78,2.35-1.19,3.37-.64,1.6-1.23,2.95-1.76,4.01l-.77,1.54-.21,1.71c-.84,6.82-1.5,12.15-1.96,15.98-.71,5.83-.77,7.22-.77,8.07,0,1.77,.33,3.7,1.05,6.09,.26,.86,.57,1.83,.92,2.91l-.85,3.47-.14,.56-.07,.57c-.27,2.18,.03,4.6,1.08,8.66,.7,2.72,1.72,6.15,3.09,10.47l3.77,12,.07,.21,.08,.21c1.05,2.88,2.64,5.86,4.86,9.1,2.05,2.99,4.71,6.13,7.91,9.34,3.37,3.48,6.5,6.18,9.56,8.26,3.86,2.62,7.45,4.05,10.95,4.34l.41,.06,1.9,1.9,3.66,.3c.12,.01,.81,.08,2.34,.51,1.69,.47,3.75,1.03,6.17,1.68,2.05,.59,4.02,1.11,5.84,1.55,2.49,.61,4.86,.91,7.05,.91,5.06,0,10.1-.46,14.98-1.36,5-.93,9.81-2.43,14.3-4.49,2.96-1.18,6.42-2.85,10.56-5.1,3.97-2.15,8.54-4.71,13.59-7.61l.08-.05,.08-.05c5.72-3.43,10.79-6.64,15.08-9.53,4.4-2.97,7.97-5.51,10.93-7.78l3.91-3v-4.93c0-2.44,0-2.88-6.52-17.06l-6.41-13.94-10.17,11.49c-1.73,1.96-3.54,3.68-5.38,5.11-1.58,1.23-3.35,2.25-5.27,3.01l-1.9,.76-1.45,1.45c-1.16,1.15-2.14,2.24-3,3.3-1.16,.31-2.32,.72-3.5,1.22-2.41,1.02-4.75,2.52-6.99,4.47-1.53,.56-2.91,1.1-4.13,1.62-1.29,.55-2.45,1.11-3.49,1.69-4.32,.82-7.8,1.44-10.37,1.83-2.59,.4-3.67,.54-4.06,.58-3.51-.04-6.72-.79-9.8-2.29-3.4-1.64-6.72-4.19-9.87-7.56l-.69-.74-.82-.58c-.98-.7-2.04-1.54-3.15-2.49-.55-2.67-1.28-5.17-2.16-7.43-1.07-2.74-2.31-5.21-3.69-7.34-1.47-2.32-2.6-4.15-3.37-5.45l1.1-10.06,.21-1.92-.52-1.86c-.47-1.69-.99-3.48-1.54-5.36,.79-3.61,1.44-6.85,1.91-9.67,.56-3.32,1.03-6.11,1.4-8.35l.03-.2,.02-.2c.84-6.62,2.46-13.33,4.82-19.95,2.38-6.66,5.57-13.42,9.5-20.09,4.61-7.4,9.42-13.19,14.28-17.23,4.39-3.64,8.72-5.77,13.23-6.51l.41-.07,.4-.1c1.1-.28,2.41-.6,3.92-.96,1.02-.25,2.08-.55,3.2-.91,1.66,.45,3.34,.84,5.02,1.19,2.07,.43,4.14,.88,6.15,1.34,.27,.15,.43,.28,.49,.37,.07,.11,.29,.44,.3,1.36-.03,.13-.16,.63-.65,1.52-.51,.93-1.61,2.49-3.98,4.72l-.53,.5-.46,.57c-1.63,2.04-2.93,4.92-4.63,10.26-1.28,4.02-2.71,9.3-4.37,16.13-1.53,6.1-2.69,11.21-3.47,15.18-1.15,5.89-1.3,8.16-1.3,9.62v.38l.03,.38c.25,3.32,.51,6.6,.77,9.84-.04,.2-.1,.47-.18,.85-.52,2.21-.75,3.87-.75,5.35,0,4.91,2.93,9.1,7.64,10.93,2.06,.8,4.52,1.17,7.96,1.17h1.29l1.24-.33c4.13-1.08,8.15-2.11,11.92-3.06l.22-.06,.22-.07c4.92-1.48,7.61-5.82,9.59-9.87,1.58-3.22,3.36-7.65,5.45-13.53,1.92-5.21,3.43-9.41,4.6-12.85,1.35-3.94,2.08-6.82,2.33-9.15,1.09-5.48,1.99-10.38,2.68-14.58,.67-4.08,1.28-7.52,1.83-10.24,.21-1.04,.46-2.74,.61-6.85,.1-2.72,.15-6.3,.15-10.66,0-10.42-1.07-18.41-3.27-24.43-3.75-10.26-10.48-13.75-15.46-14.87l-.18-.04-.18-.03-2.59-.49c-2.53-1.44-5.5-2.51-8.88-3.19-3.69-.75-7.91-1.11-12.92-1.11h0Z" fill="#333"/></g><g><path d="M689.27,216.78c-4.79,0-9.17-1.26-13.01-3.74-3.77-2.43-6.97-6.19-9.51-11.17-.32-.64-.64-1.31-.99-2.05-.17-.36-.37-.74-.6-1.14-2.21-2.13-4.35-4.28-6.39-6.41l-.07-.08c-.77-.84-2.26-2.65-6.33-8.62-2.94-4.31-6.67-10.27-11.09-17.69l-.05-.09c-1.91-3.37-3.99-6.83-6.18-10.3-.31-.49-.63-.99-.94-1.49-.45,2.52-.89,5.48-1.32,8.85-.05,1.39-.4,3.14-1.09,5.6-.69,2.43-.72,3.28-.72,3.4h0s.04,.36,.23,1.25c.32,1.49,.47,2.53,.47,3.38,0,3.24-.43,7.91-1.31,14.27-.8,5.81-1.21,10.15-1.21,12.9,0,3.52-.69,6.2-2.11,8.21-1.23,1.73-3.63,3.79-8.07,3.79h-.24l-.24-.02c-1.62-.15-3.01-.37-4.21-.65-1.08,.26-2.12,.46-3.1,.61l-.38,.06h-.38c-2.98,0-5.51-1.72-6.96-4.73-.96-1.98-1.4-4.56-1.4-8.12,0-1.35,.26-3.12,.83-5.59,.52-2.29,.58-3.31,.58-3.65,0-.12-.02-.79-.35-2.73-.34-1.96-.49-3.36-.49-4.42,0-.69,.08-2.12,.66-7.54,.43-3.98,1.11-9.71,2.04-17.04,.83-7.52,1.6-13.62,2.25-18.03,.91-6.1,1.3-7.81,1.56-8.68l.08-.27,.11-.26c.33-.76,.74-1.65,1.24-2.65,.1-.19,.22-.5,.33-.94l-2.09-7.95,.19-1.07c.73-4.2,1.64-10.51,2.7-18.76,1.07-8.35,2.37-18.96,3.84-31.52l.13-1.17c.78-6.9,1.38-12.29,1.83-16.18,.71-6.28,.83-6.97,.88-7.26l.07-.4,.13-.39c1.56-4.58,4.02-8.49,7.31-11.6,3.08-2.92,6.96-5.18,11.54-6.71,.28-.21,.64-.49,1.11-.87,.85-.7,1.88-1.5,3.05-2.38l1-.75,1.24-.19c.31-.05,.63-.07,.94-.07,4.22,0,6.85,3.9,8.86,7.72,2.34,4.44,3.38,7.58,3.38,10.17,0,.99-.11,2.21-.33,3.74-.24,1.58-.67,3.3-1.32,5.26-.63,1.99-1.12,3.59-1.48,4.83-.47,1.65-.58,2.15-.61,2.27l-.04,.21-.06,.21c-1.47,5.04-3.14,11.47-4.98,19.1-1.84,7.64-3.91,16.83-6.13,27.31-.19,.85-.39,1.83-.6,3.02-.27,1.43-.7,3.1-1.28,4.97-.06,.27-.12,.53-.18,.79,1.42-1.35,3.12-3.07,5.14-5.25,6.05-6.51,13.99-15.81,23.59-27.63,9.74-11.96,17.13-21.79,21.96-29.21,5.53-8.52,6.45-11.95,6.59-13.01-.12-.23-.4-.68-.98-1.38-2.24-2.68-3.34-5.17-3.34-7.62,0-2.81,.94-6.85,5.41-10.11,2.88-2.09,6.88-3.59,12.24-4.57h.01c.23-.11,.88-.48,2.14-1.46,2.89-2.27,5.54-3.37,8.12-3.37h.5l.49,.1c.66,.13,1.3,.24,1.91,.32,1.01-.56,2.01-1.15,2.98-1.76l3.34-2.08,2.81,2.76c1.96,1.93,3.4,4.14,4.27,6.57,.81,2.27,1.22,4.84,1.22,7.64,0,4.96-.62,9.45-1.84,13.33-1.34,4.25-3.48,7.74-6.36,10.38l-.13,.11c-.55,.47-1.16,1.04-1.82,1.7-.5,.5-1.01,1.06-1.52,1.68-1.57,3.25-3.69,6.82-6.29,10.63-2.68,3.92-5.91,8.26-9.6,12.9-8.08,9.97-15.58,18.79-22.32,26.28-6.76,7.52-12.99,13.94-18.51,19.08-1.97,1.89-3.47,3.52-4.4,4.81-.15,.21-.27,.39-.37,.54,1.24,2.46,2.38,4.78,3.38,6.94l.09,.19c2.2,5.32,4.54,10.56,6.96,15.56,2.47,5.14,4.94,10.35,7.33,15.5,3.87,7.38,7.45,12.91,10.64,16.44,2.83,3.13,4.61,3.92,5.45,4.11,.42-.16,1.19-.48,2.54-1.1,2.04-.94,4.77-2.27,8.12-3.98,1.31-1.46,3.24-2.97,5.95-4.67,1.1-.69,1.8-1.17,2.24-1.5l2.39-14.29,6.82,14.46c6.22,13.2,6.22,13.65,6.22,15.01v2l-1.38,1.45c-2.04,2.14-4.78,4.53-8.14,7.1-3.21,2.46-7.21,5.3-11.87,8.44-5.11,3.54-9.38,6.06-12.99,7.69-4.06,1.83-7.13,2.68-9.69,2.68Z" fill="#ff0000"/><path d="M729.38,12.65c1.42,1.4,2.45,2.96,3.06,4.69,.62,1.73,.93,3.71,.93,5.95,0,4.48-.54,8.43-1.61,11.83-1.08,3.41-2.73,6.14-4.97,8.19-.65,.56-1.35,1.21-2.1,1.96s-1.49,1.59-2.24,2.52c-1.49,3.17-3.55,6.68-6.16,10.5-2.62,3.83-5.74,8.03-9.38,12.6-8.03,9.9-15.4,18.58-22.12,26.05-6.72,7.47-12.79,13.72-18.2,18.76-2.24,2.15-3.92,3.99-5.04,5.53-1.12,1.54-1.68,2.87-1.68,3.99,1.59,3.08,2.99,5.93,4.2,8.54,2.24,5.42,4.6,10.69,7.07,15.82,2.47,5.13,4.92,10.32,7.35,15.54,4.11,7.84,7.91,13.7,11.41,17.57,3.5,3.88,6.7,5.81,9.59,5.81,.47,0,1.87-.54,4.2-1.61,2.33-1.07,5.41-2.59,9.24-4.55,.84-1.21,2.64-2.68,5.39-4.41,2.75-1.73,4.18-2.87,4.27-3.43,3.83,8.12,5.74,12.42,5.74,12.88-1.87,1.96-4.39,4.16-7.56,6.58-3.17,2.43-7.05,5.18-11.62,8.26-4.86,3.36-8.94,5.79-12.25,7.28-3.31,1.49-5.86,2.24-7.63,2.24-3.83,0-7.26-.98-10.29-2.94-3.04-1.96-5.63-5.04-7.77-9.24-.28-.56-.58-1.19-.91-1.89-.33-.7-.72-1.42-1.19-2.17-2.33-2.24-4.58-4.48-6.72-6.72-1.03-1.12-2.99-3.8-5.88-8.05-2.89-4.25-6.54-10.06-10.92-17.43-1.96-3.45-4.06-6.95-6.3-10.5-2.24-3.55-4.58-7.14-7-10.78-.65,.93-1.38,3.1-2.17,6.51-.79,3.41-1.56,8.05-2.31,13.93,0,.93-.3,2.47-.91,4.62-.61,2.15-.91,3.73-.91,4.76,0,.47,.12,1.24,.35,2.31,.23,1.07,.35,1.84,.35,2.31,0,2.99-.42,7.52-1.26,13.58-.84,6.07-1.26,10.6-1.26,13.58,0,2.43-.4,4.2-1.19,5.32-.79,1.12-2.12,1.68-3.99,1.68-1.96-.19-3.5-.47-4.62-.84-1.4,.37-2.71,.65-3.92,.84-1.03,0-1.84-.63-2.45-1.89-.61-1.26-.91-3.24-.91-5.95,0-.93,.23-2.43,.7-4.48,.47-2.05,.7-3.64,.7-4.76,0-.75-.14-1.94-.42-3.57-.28-1.63-.42-2.82-.42-3.57s.21-3.08,.63-7c.42-3.92,1.1-9.57,2.03-16.94,.84-7.56,1.59-13.54,2.24-17.92,.65-4.39,1.12-7.05,1.4-7.98,.28-.65,.65-1.45,1.12-2.38,.47-.93,.79-2.05,.98-3.36l-2.1-7.98c.75-4.29,1.66-10.62,2.73-18.97,1.07-8.35,2.36-18.88,3.85-31.58,.84-7.47,1.49-13.25,1.96-17.36,.47-4.11,.75-6.44,.84-7,1.31-3.83,3.31-7.02,6.02-9.59,2.71-2.57,6.16-4.5,10.36-5.81,.56-.37,1.24-.89,2.03-1.54,.79-.65,1.75-1.4,2.87-2.24,.06,0,.12-.01,.18-.01,1.18,0,2.66,1.69,4.44,5.06,1.87,3.55,2.8,6.16,2.8,7.84,0,.75-.09,1.75-.28,3.01-.19,1.26-.56,2.73-1.12,4.41-.65,2.05-1.17,3.73-1.54,5.04-.37,1.31-.61,2.19-.7,2.66-1.49,5.14-3.17,11.58-5.04,19.32-1.87,7.75-3.92,16.9-6.16,27.45-.19,.84-.4,1.89-.63,3.15-.23,1.26-.63,2.78-1.19,4.55-.37,1.59-.7,3.03-.98,4.34-.28,1.31-.42,2.43-.42,3.36,0,1.21,.47,2.57,1.4,4.06,2.8-1.03,7.28-4.86,13.44-11.49,6.16-6.63,14.09-15.93,23.8-27.89,9.89-12.15,17.32-22.02,22.27-29.64,4.95-7.61,7.42-12.96,7.42-16.05,0-1.12-.72-2.54-2.17-4.27-1.45-1.73-2.17-3.2-2.17-4.42,0-2.42,1.12-4.44,3.35-6.06s5.64-2.86,10.2-3.7c.93-.09,2.38-.91,4.33-2.44s3.63-2.3,5.03-2.3c1.4,.28,2.7,.47,3.91,.56,1.58-.84,3.12-1.72,4.61-2.65m1.4-12.65l-6.69,4.17c-.42,.26-.84,.52-1.27,.77l-.97-.19h-.99c-3.73,0-7.4,1.45-11.2,4.43-.38,.29-.66,.5-.87,.64-5.67,1.13-10.06,2.86-13.38,5.28-4.82,3.51-7.47,8.53-7.47,14.15,0,3.37,1.24,6.64,3.79,9.95-.68,1.62-2.14,4.54-5.26,9.34-4.73,7.27-12.01,16.95-21.63,28.77-5.97,7.35-11.28,13.71-15.89,19.02,1.46-6.65,2.83-12.64,4.1-17.89,1.82-7.56,3.48-13.91,4.92-18.87l.12-.42,.08-.42s.1-.43,.51-1.87c.33-1.17,.81-2.74,1.44-4.7,.73-2.21,1.23-4.19,1.5-6.02,.27-1.82,.39-3.24,.39-4.49,0-3.45-1.22-7.3-3.95-12.5-1.5-2.85-5.48-10.4-13.29-10.4-.57,0-1.14,.04-1.7,.13l-2.48,.38-2.01,1.51c-1.23,.93-2.32,1.77-3.22,2.52-.13,.1-.24,.2-.34,.28-4.92,1.76-9.15,4.29-12.57,7.54-3.88,3.68-6.78,8.26-8.6,13.62l-.26,.77-.14,.81c-.09,.54-.24,1.6-.91,7.53-.45,3.91-1.06,9.34-1.84,16.29l-.12,1.06c-1.48,12.54-2.77,23.12-3.83,31.44-1.05,8.17-1.95,14.41-2.66,18.54l-.37,2.15,.56,2.11,1.39,5.26c-.34,.71-.65,1.37-.9,1.97l-.23,.53-.16,.55c-.31,1.02-.71,2.66-1.71,9.38-.66,4.46-1.43,10.59-2.28,18.21-.93,7.32-1.61,13.06-2.04,17.06-.63,5.91-.69,7.23-.69,8.07,0,1.36,.17,2.98,.56,5.26,.2,1.18,.26,1.74,.27,1.93-.01,.17-.09,.91-.45,2.51-.65,2.87-.95,4.94-.95,6.69,0,4.33,.61,7.61,1.9,10.3,2.27,4.72,6.55,7.54,11.46,7.54h.76l.75-.12c.77-.12,1.57-.26,2.38-.44,1.12,.21,2.35,.38,3.7,.51l.47,.04h.47c6.93,0,10.58-3.69,12.15-5.89,2.05-2.89,3.04-6.52,3.04-11.11,0-1.73,.2-5.25,1.17-12.21,.91-6.59,1.36-11.48,1.36-14.95,0-1.23-.17-2.56-.58-4.43-.03-.12-.05-.23-.07-.32,.07-.36,.21-.97,.48-1.91,.15-.53,.28-1.03,.41-1.52l.02,.03,.05,.09c4.47,7.51,8.26,13.56,11.25,17.95,4.2,6.17,5.83,8.15,6.78,9.18l.07,.08,.07,.08c1.91,2,3.92,4.02,5.98,6.02,.03,.07,.07,.14,.1,.2,.36,.77,.7,1.48,1.01,2.11l.02,.05,.02,.05c2.95,5.77,6.73,10.17,11.25,13.09,4.66,3.01,9.95,4.54,15.72,4.54,3.28,0,7.02-.99,11.74-3.12,3.88-1.75,8.39-4.41,13.78-8.14,4.72-3.18,8.78-6.07,12.06-8.58,3.62-2.77,6.47-5.26,8.72-7.63l2.76-2.9v-4c0-2.49,0-2.94-6.7-17.15l-13.63-28.93-4.68,27.94c-.1,.07-.21,.13-.32,.2-2.73,1.71-4.78,3.27-6.34,4.85-2.94,1.49-5.34,2.66-7.16,3.5-.08,.04-.15,.07-.22,.1-.49-.4-1.15-1.01-1.97-1.92-2.89-3.2-6.21-8.35-9.86-15.3-2.39-5.13-4.85-10.33-7.31-15.45-2.37-4.93-4.68-10.08-6.84-15.31l-.08-.2-.09-.19c-.62-1.34-1.3-2.75-2.02-4.21,.59-.64,1.35-1.42,2.34-2.37,5.61-5.23,11.93-11.74,18.77-19.34,6.79-7.54,14.35-16.44,22.46-26.43l.03-.04,.03-.04c3.77-4.73,7.07-9.17,9.82-13.19,2.59-3.79,4.73-7.38,6.37-10.68,.29-.33,.57-.63,.84-.91,.57-.57,1.08-1.05,1.53-1.43l.13-.11,.12-.11c3.54-3.24,6.15-7.47,7.75-12.56,1.38-4.38,2.07-9.37,2.07-14.84,0-3.37-.51-6.5-1.51-9.31-1.13-3.16-2.97-6-5.47-8.46l-5.62-5.52h0Z" fill="#333"/></g><g><path d="M760.26,223.22c-3.97,0-7.23-1.93-9.19-5.42-1.51-2.69-2.25-6.4-2.25-11.34,0-5.22,2.67-10.21,7.94-14.82,5.07-4.45,10.25-6.7,15.41-6.7,3.59,0,6.47,.47,8.79,1.44,3.87,1.61,5.36,4.16,5.93,6.01l.32,1.04-1.57,12.06-.04,.2c-.23,1.08-.38,2.18-.46,3.28-.11,1.6-.33,3.18-.66,4.7l-.08,.38-.14,.37c-.92,2.37-2.58,4.22-4.81,5.34-1.84,.92-4.08,1.37-6.86,1.37-.59,0-2.03,.12-4.96,.89-3.11,.82-5.51,1.21-7.36,1.21Zm4.82-37.67l-.22-.02c-3.38-.3-5.02-1.94-5.81-3.26l-.71-1.18v-1.38c0-.18-.02-.72-.13-2.31-.1-1.42-.15-2.5-.15-3.29v-.6l1.33-5.47c-.34-3.04-.68-6.01-1.02-8.9l-.03-.29v-.29c0-2.27,.08-4.46,.22-6.52,.14-2.02,.31-4.01,.5-5.88l.04-.39,.1-.38c.59-2.26,1.18-4.09,1.8-5.6,.19-.67,.36-1.4,.5-2.16,.18-.98,.2-1.46,.2-1.62l-.07-7.79,.23-5.46,.1-.43c.11-.48,.16-.94,.16-1.37v-3.45l.29-.81c.92-2.6,1.58-5.08,1.95-7.38,.33-2.08,.36-4.1,.06-6.01l-.18-1.19,.38-1.15c.98-2.94,1.74-5.53,2.26-7.71,.58-2.41,.7-3.9,.7-4.71,0-.31-.04-1.03-.28-2.45-.15-.86-.33-2.38-.46-6.33l-3.76-2.43-.96-4.5v-.53c0-2.71,.75-6.29,2.28-10.95,1.58-4.79,1.56-6.62,1.52-7.07l-.02-.19-.14-7.33c-.21-1.78-.11-3.71,.3-5.77,.39-1.93,1.02-3.91,1.87-5.86,.91-2.46,1.93-4.45,3.14-6.08,1.41-1.91,3.08-3.26,4.97-4.02,.59-.33,1.25-.63,1.94-.89,.38-.15,.75-.28,1.11-.41,1.53-1.21,2.99-2.36,4.37-3.46,1.43-1.14,2.75-2.31,3.91-3.47l.33-.33,.39-.27c2.52-1.71,4.87-3.1,6.99-4.14,2.63-1.28,5.02-1.91,7.3-1.91,3.18,0,5.86,1.77,7.17,4.73,.81,1.84,1.2,4.21,1.2,7.27,0,1.65-.18,3.69-.54,6.24-.35,2.47-.93,5.3-1.71,8.42-.71,2.94-1.31,5.57-1.78,7.79-.42,2.01-.67,3.61-.75,4.77-.1,2.13-.52,5.92-1.3,11.49-.75,5.41-1.9,12.42-3.39,20.84-1.02,5.54-2.29,12.7-3.78,21.33-1.48,8.54-3.18,18.42-5.11,29.64-.03,1.18-.16,2.5-.41,4-.22,1.33-.47,2.98-.75,5.04l-.06,.47-.15,.45c-.21,.64-.48,1.36-.8,2.15-.29,.71-.64,1.44-1.05,2.17-.11,.63-.34,2.01-.74,4.91-.45,3.3-.96,8.1-1.51,14.26l-.02,.17-.03,.17c-.5,3.16-3.1,6.55-8.99,11.73-6.93,6.09-10.05,7.34-12.61,7.34h-.22Z" fill="#ff0000"/><path d="M802.4,15.17c1.21,0,2.08,.58,2.59,1.75,.51,1.17,.77,2.92,.77,5.25,0,1.4-.16,3.25-.49,5.53-.33,2.29-.86,4.93-1.61,7.91-.75,3.08-1.35,5.74-1.82,7.98-.47,2.24-.75,4.06-.84,5.46-.09,2.05-.51,5.77-1.26,11.13-.75,5.37-1.87,12.25-3.36,20.65-1.03,5.6-2.29,12.72-3.78,21.35-1.5,8.64-3.22,18.65-5.18,30.04,0,1.03-.12,2.24-.35,3.64-.23,1.4-.49,3.13-.77,5.18-.19,.56-.42,1.19-.7,1.89s-.65,1.42-1.12,2.17c-.19,.65-.51,2.69-.98,6.09-.47,3.41-.98,8.24-1.54,14.49-.28,1.77-2.73,4.69-7.35,8.75s-7.73,6.09-9.31,6.09c-1.03-.09-1.68-.37-1.96-.84,0-.47-.05-1.35-.14-2.66-.09-1.31-.14-2.29-.14-2.94l1.4-5.74c-.37-3.36-.75-6.63-1.12-9.8,0-2.15,.07-4.2,.21-6.16,.14-1.96,.3-3.87,.49-5.74,.56-2.15,1.12-3.87,1.68-5.18,.28-.93,.51-1.91,.7-2.94,.19-1.03,.28-1.87,.28-2.52l-.07-7.7c.05-1.03,.12-2.66,.21-4.9,.19-.84,.28-1.66,.28-2.45v-2.59c1.03-2.89,1.75-5.65,2.17-8.26,.42-2.61,.44-5.13,.07-7.56,1.03-3.08,1.82-5.79,2.38-8.12,.56-2.33,.84-4.29,.84-5.88,0-.84-.12-1.94-.35-3.29-.23-1.35-.4-4.6-.49-9.73-.56,.19-1.17,.28-1.82,.28l-2.38-1.54-.42-1.96c0-2.15,.68-5.27,2.03-9.38,1.35-4.11,1.94-7.14,1.75-9.1l-.14-7.42c-.19-1.31-.12-2.78,.21-4.41,.33-1.63,.86-3.29,1.61-4.97,.75-2.05,1.59-3.71,2.52-4.97,.93-1.26,1.96-2.08,3.08-2.45,.47-.28,1-.54,1.61-.77,.61-.23,1.19-.44,1.75-.63,1.77-1.4,3.45-2.73,5.04-3.99,1.59-1.26,3.03-2.54,4.34-3.85,2.33-1.59,4.46-2.85,6.37-3.78,1.91-.93,3.62-1.4,5.11-1.4m-30.25,174.76c2.89,0,5.18,.35,6.86,1.05,1.68,.7,2.71,1.66,3.08,2.87l-1.4,10.78c-.28,1.31-.47,2.64-.56,3.99-.09,1.35-.28,2.68-.56,3.99-.47,1.21-1.26,2.1-2.38,2.66s-2.66,.84-4.62,.84c-1.49,0-3.57,.35-6.23,1.05-2.66,.7-4.69,1.05-6.09,1.05-2.15,0-3.76-.96-4.83-2.87-1.07-1.91-1.61-4.88-1.61-8.89,0-3.73,2.08-7.42,6.23-11.06,4.15-3.64,8.19-5.46,12.11-5.46M802.4,5.17c-3.02,0-6.21,.81-9.49,2.41-2.34,1.14-4.9,2.65-7.61,4.5l-.78,.53-.67,.67c-1.03,1.03-2.2,2.07-3.49,3.09-1.19,.94-2.43,1.93-3.73,2.95-.14,.05-.27,.1-.41,.16-.82,.31-1.59,.66-2.3,1.04-2.64,1.12-4.94,2.99-6.85,5.57-1.47,1.98-2.7,4.33-3.76,7.18-.97,2.24-1.69,4.51-2.14,6.75-.5,2.47-.63,4.84-.39,7.07l.13,6.91v.38l.03,.24c-.01,.28-.15,1.72-1.28,5.17-1.73,5.24-2.53,9.22-2.53,12.51v1.06l.22,1.04,.42,1.96,.87,4.05,3.33,2.15c.13,2.39,.28,3.58,.42,4.4,.19,1.13,.2,1.57,.2,1.59,0,.35-.05,1.42-.56,3.54-.49,2.04-1.21,4.5-2.15,7.3l-.76,2.29,.37,2.39c.22,1.41,.2,2.87-.06,4.46-.32,2-.9,4.19-1.72,6.51l-.58,1.62v4.31s0,.1-.04,.28l-.19,.86-.04,.88c-.09,2.23-.16,3.85-.21,4.87v.54l.06,7.55c0,.09-.03,.34-.12,.79-.09,.5-.2,.99-.32,1.44-.66,1.65-1.29,3.61-1.9,5.95l-.2,.75-.08,.77c-.19,1.93-.37,3.95-.51,6.03-.16,2.17-.24,4.49-.24,6.87v.58l.07,.58c.3,2.6,.61,5.27,.92,7.99l-.98,4.02-.28,1.17v1.2c0,.91,.05,2.11,.17,3.66,.1,1.48,.11,1.9,.12,1.97v2.76l1.41,2.34c.22,.38,.51,.81,.88,1.26-.73,.56-1.45,1.15-2.17,1.78-6.4,5.6-9.64,11.86-9.64,18.58,0,5.81,.95,10.32,2.89,13.79,2.84,5.07,7.78,7.97,13.55,7.97,2.32,0,5.06-.44,8.64-1.38,2.68-.7,3.65-.72,3.69-.72,3.57,0,6.54-.62,9.09-1.9,3.37-1.68,5.87-4.45,7.24-8.01l.28-.73,.16-.77c.38-1.75,.63-3.57,.76-5.39,.06-.88,.18-1.75,.36-2.59l.09-.4,.05-.41,1.4-10.78,.28-2.16-.64-2.08c-.73-2.35-2.83-6.67-8.79-9.15-.32-.13-.65-.26-.98-.38,6.46-5.77,9.27-9.77,9.95-14.11l.05-.33,.03-.34c.54-6.08,1.04-10.8,1.49-14.02,.27-1.99,.46-3.21,.57-3.94,.34-.66,.64-1.31,.9-1.97,.34-.84,.64-1.65,.89-2.42l.3-.9,.13-.94c.27-1.98,.51-3.63,.73-4.88,.26-1.59,.42-3.01,.47-4.33,1.91-11.08,3.59-20.85,5.05-29.3,1.49-8.61,2.75-15.76,3.76-21.26v-.06c1.52-8.48,2.67-15.55,3.43-21.02,.79-5.71,1.22-9.51,1.34-11.93,.04-.56,.18-1.77,.65-4,.45-2.17,1.04-4.74,1.74-7.64,.82-3.27,1.42-6.26,1.8-8.88,.4-2.8,.59-5.07,.59-6.95,0-3.81-.51-6.76-1.61-9.26-2.11-4.78-6.61-7.74-11.75-7.74h0Z" fill="#333"/></g></svg>