<?xml version="1.0" encoding="UTF-8" standalone="no"?><!-- Generator: Gravit.io --><svg xmlns="http://www.w3.org/2000/svg" xmlns:xlink="http://www.w3.org/1999/xlink" style="isolation:isolate" viewBox="0 0 282 203" width="282pt" height="203pt"><defs><clipPath id="_clipPath_s9hHjymoToVwrRN9yXiHpKuLvVF7cnxc"><rect width="282" height="203"/></clipPath></defs><g clip-path="url(#_clipPath_s9hHjymoToVwrRN9yXiHpKuLvVF7cnxc)"><g style="isolation:isolate"><path d=" M 89.542 203 L 31.701 26.974 L 31.701 26.974 Q 28.642 17.797 22.803 13.348 L 22.803 13.348 L 22.803 13.348 Q 16.963 8.899 5.284 8.899 L 5.284 8.899 L 0 8.899 L 0 0 L 90.377 0 L 90.377 8.899 L 82.312 8.899 L 82.312 8.899 Q 78.419 8.899 76.055 11.679 L 76.055 11.679 L 76.055 11.679 Q 73.692 14.46 73.692 18.632 L 73.692 18.632 L 73.692 18.632 Q 73.692 21.968 75.082 25.584 L 75.082 25.584 L 110.121 132.645 L 136.26 43.659 L 130.142 25.027 L 130.142 25.027 Q 127.084 15.851 122.217 12.375 L 122.217 12.375 L 122.217 12.375 Q 117.351 8.899 108.174 8.899 L 108.174 8.899 L 103.447 8.899 L 103.447 0 L 194.658 0 L 194.658 8.899 L 181.032 8.899 L 181.032 8.899 Q 177.138 8.899 174.636 11.401 L 174.636 11.401 L 174.636 11.401 Q 172.133 13.904 172.133 16.963 L 172.133 16.963 L 172.133 16.963 Q 172.133 19.744 172.967 23.081 L 172.967 23.081 L 208.284 131.533 L 233.589 40.044 L 233.589 40.044 Q 234.145 38.097 234.84 33.231 L 234.84 33.231 L 234.84 33.231 Q 235.536 28.364 235.536 25.027 L 235.536 25.027 L 235.536 25.027 Q 235.536 18.91 232.06 13.904 L 232.06 13.904 L 232.06 13.904 Q 228.584 8.899 220.797 8.899 L 220.797 8.899 L 206.893 8.899 L 206.893 0 L 281.975 0 L 281.975 8.899 L 273.355 8.899 L 273.355 8.899 Q 254.723 8.899 246.659 34.204 L 246.659 34.204 L 199.663 203 L 187.984 203 L 142.378 62.29 L 101.222 203 L 89.542 203 Z " fill="rgb(119,109,45)"/><rect x="82.643" y="11.033" width="173.089" height="173.089" transform="matrix(1,0,0,1,0,0)" fill="rgb(187,172,74)"/><path d=" M 140.523 154.133 L 108.294 56.052 L 108.294 56.052 Q 106.589 50.938 103.336 48.459 L 103.336 48.459 L 103.336 48.459 Q 100.082 45.98 93.574 45.98 L 93.574 45.98 L 90.63 45.98 L 90.63 41.022 L 140.988 41.022 L 140.988 45.98 L 136.494 45.98 L 136.494 45.98 Q 134.325 45.98 133.008 47.529 L 133.008 47.529 L 133.008 47.529 Q 131.691 49.079 131.691 51.403 L 131.691 51.403 L 131.691 51.403 Q 131.691 53.262 132.466 55.277 L 132.466 55.277 L 151.989 114.931 L 166.554 65.348 L 163.145 54.967 L 163.145 54.967 Q 161.441 49.854 158.729 47.917 L 158.729 47.917 L 158.729 47.917 Q 156.018 45.98 150.904 45.98 L 150.904 45.98 L 148.27 45.98 L 148.27 41.022 L 199.093 41.022 L 199.093 45.98 L 191.5 45.98 L 191.5 45.98 Q 189.331 45.98 187.937 47.375 L 187.937 47.375 L 187.937 47.375 Q 186.542 48.769 186.542 50.473 L 186.542 50.473 L 186.542 50.473 Q 186.542 52.023 187.007 53.882 L 187.007 53.882 L 206.685 114.312 L 220.785 63.334 L 220.785 63.334 Q 221.095 62.249 221.483 59.538 L 221.483 59.538 L 221.483 59.538 Q 221.87 56.826 221.87 54.967 L 221.87 54.967 L 221.87 54.967 Q 221.87 51.558 219.933 48.769 L 219.933 48.769 L 219.933 48.769 Q 217.996 45.98 213.658 45.98 L 213.658 45.98 L 205.91 45.98 L 205.91 41.022 L 247.746 41.022 L 247.746 45.98 L 242.943 45.98 L 242.943 45.98 Q 232.561 45.98 228.068 60.08 L 228.068 60.08 L 201.882 154.133 L 195.374 154.133 L 169.963 75.73 L 147.031 154.133 L 140.523 154.133 Z " fill="rgb(255,255,255)"/></g></g></svg>